<svg width="30" height="30" viewBox="0 0 30 30" fill="none" xmlns="http://www.w3.org/2000/svg">
<path d="M6.49999 19.3C6.49999 19.2 6.59999 19.1 6.59999 19.1C6.49999 19 6.49999 19.1 6.49999 19.3C6.39999 19.4 6.39999 19.4 6.39999 19.5C6.39999 19.4 6.49999 19.3 6.49999 19.3Z" fill="#FF6333"/>
<path d="M10.2 14.2C11.4 13.7 13.2 13.2 14.7 12.5C13.3 13 11.5 13.5 10.2 14.2Z" fill="#FF6333"/>
<path d="M5.50001 26.8C5.20001 26.6 5.20001 25.1 5.20001 24.7C4.90001 25.3 5.30001 27.3 5.50001 26.8Z" fill="#FF6333"/>
<path d="M10.1 14.4C10.2 14.4 10.3 14.3 10.4 14.3C10.8 14.1 11.2 14 11.2 13.9C10.8 14 10.5 14.3 10.1 14.4Z" fill="#FF6333"/>
<path d="M5.8 15.7C6 15.4 6.8 15 7.4 14.7C8 14.4 8 14.5 8 14.5V14.4C7.8 14.4 5.7 15.4 5.8 15.7Z" fill="#FF6333"/>
<path d="M6.29999 21.9C6.29999 22.2 7.69999 18.4 7.69999 18.4L7.59999 18.3C7.49999 18.3 6.29999 21.6 6.29999 21.9Z" fill="#FF6333"/>
<path d="M7.20001 18.2L7.10001 18.1C6.90001 18.5 6.80001 18.8 6.60001 19.4C6.30001 20.4 5.90001 21.3 5.60001 22.3C5.40001 23.1 5.30001 23.7 5.20001 24.2V24.3V24.4C5.20001 24.3 5.30001 24.3 5.30001 24.2C5.40001 23.7 5.50001 23.1 5.70001 22.3C5.90001 21.7 6.10001 20.8 6.50001 19.8C6.80001 19.1 7.00001 18.7 7.20001 18.2Z" fill="#FF6333"/>
<path d="M17.4 12.4H17.3C16.7 12.6 16.5 12.7 16.5 12.7C16.6 12.7 16.9 12.6 17.3 12.5C17.5 12.5 17.6 12.4 17.8 12.3C18.4 12.1 18.9 11.9 18.8 11.9C18.7 11.9 18.2 12.1 17.5 12.3L17.4 12.4Z" fill="#FF6333"/>
<path d="M8.80001 17.3C8.70001 17.3 8.60001 17.2 8.80001 17.3Z" fill="#FF6333"/>
<path d="M7.3 15.5C7.2 15.5 6.2 16.1 6.4 16C6.4 16 7.4 15.5 7.3 15.5Z" fill="#FF6333"/>
<path d="M6.59999 18.7C6.79999 17.9 6.69999 18.7 6.79999 18.4C6.59999 19 6.69999 18.8 6.99999 18.1C6.99999 18.1 6.89999 18 6.79999 18C6.69999 18.3 6.39999 18.8 6.29999 19.1C6.29999 19.4 6.39999 19.3 6.59999 18.7Z" fill="#FF6333"/>
<path d="M7.2 15.2C7.2 15.2 6.9 15.3 6.9 15.2C6.2 15.6 6.3 15.5 6 15.8C6.1 15.8 6.4 15.5 6.7 15.3C7.1 15.3 7.2 15.2 7.2 15.2Z" fill="#FF6333"/>
<path d="M9 15C9 15 8.3 16.4 8.3 16.5C8.3 16.6 8.2 16.7 8.3 16.7C8.4 16.7 9.2 14.8 9.2 14.8L9 15Z" fill="#FF6333"/>
<path d="M9.90001 13.3C10 13 12.3 7.50003 12.2 7.70003C12 7.70003 9.70001 13.5 9.70001 13.5L9.90001 13.3Z" fill="#FF6333"/>
<path d="M8.99999 13.4C8.99999 13.5 8.89999 13.6 8.89999 13.6H8.99999C9.19999 13.1 9.29999 13 9.19999 13.1C9.19999 13.3 9.19999 13.3 9.29999 12.9C9.39999 12.7 9.49999 12.4 9.49999 12.3C9.49999 12.2 9.59999 12.1 9.59999 12C9.69999 11.8 9.79999 11.5 9.89999 11.2C10.1 10.8 10.2 10.6 10.2 10.5C10.1 10.6 10.1 10.6 10.1 10.6C10.1 10.7 9.99999 10.7 9.99999 10.8C9.89999 11 9.59999 11.7 9.49999 12C9.49999 12.1 9.39999 12.2 9.39999 12.2C9.49999 12.1 9.29999 12.4 9.19999 12.6C9.09999 12.8 9.09999 12.8 9.09999 12.9C9.19999 13 9.09999 13.2 8.99999 13.4Z" fill="#FF6333"/>
<path d="M23.7 0H6.3C2.8 0 0 2.8 0 6.3V23.6C0 27.2 2.8 30 6.3 30H23.6C27.1 30 29.9 27.2 29.9 23.7V6.3C30 2.8 27.2 0 23.7 0ZM15.7 11.3H15.5C15.5 11.3 15.6 11.3 15.7 11.3ZM8.7 13.4C8.8 13.2 8.8 13 8.9 12.9C9 12.8 9 12.7 9.1 12.6L9.2 12.5C9.2 12.5 9.2 12.6 9.1 12.8L9 13C8.7 13.6 8.6 13.7 8.7 13.4ZM16.5 22.1C16.4 22.1 16.4 22 16.4 22L16.5 22.1C16.5 22 16.4 22 16.5 22.1ZM25 25C23.8 24.7 23.4 24.4 23.5 24.4C23.6 24.4 23.6 24.4 23.4 24.3C23.3 24.3 23.1 24.2 23.1 24.2C23.1 24.2 22.6 24.1 22.1 23.9C21.4 23.7 21.5 23.7 20.8 23.4C20.3 23.2 20.1 23.2 20 23.2C17.6 22.4 10.3 19.3 8.3 18.4C8.1 18.9 7.9 19.5 7.6 20.6C7.6 20.6 7.6 20.6 7.6 20.7C7.5 20.9 7.4 21.2 7.4 21.4V21.5C7.4 21.6 7.4 21.6 7.3 21.7C7.3 21.8 7.2 22 7.2 22.1C7.2 22.2 7.1 22.3 7.1 22.4C7.1 22.4 7.1 22.4 7.1 22.5C7.1 22.6 7 22.8 7 22.9C7 23 6.9 23.2 6.9 23.3C6.9 23.4 6.8 23.6 6.8 23.7C6.8 23.8 6.7 24 6.7 24.1V24.2C6.7 24.3 6.7 24.4 6.7 24.4C6.4 26.9 6.9 25.7 7.5 25.3C7.7 25.2 7.3 25.7 7.5 25.9C7.6 25.9 7.7 26 7.8 26L7.9 25.8C7.9 25.8 8 26 7.8 26C7.6 26.7 6.8 27.6 6.3 27.4C5.2 27.4 5 27 4.9 26.3C4.9 26.2 4.9 26.1 4.9 26.1C4.9 25.9 4.7 25.3 4.9 24.4C4.9 24.3 4.9 24.3 4.9 24.2C4.9 23.8 5 23.4 5.1 23C5.2 22.8 5.3 22.5 5.3 22.2C5.3 22.1 5.3 22 5.3 22C5.3 22 5.3 22 5.4 22C5.5 21.9 5.5 22 5.4 22.3C5.4 22.5 5.3 22.6 5.3 22.7C5.1 23.3 5.1 23.5 5 23.8C5 24 5 24.1 5 24C5 23.9 5.2 23.2 5.4 22.3C5.5 22.1 5.5 21.9 5.6 21.7C5.7 21.4 5.8 21.1 5.8 20.9C6 20.2 6.2 19.8 6.1 19.9C6 20.1 6 20.1 6 19.9C6 19.7 6 19.7 5.9 20C5.7 20.8 5.7 21 5.4 21.5L5.2 21.8C5.2 21.7 5.2 21.6 5.2 21.5V21.4C5.2 21.3 5.3 21.2 5.3 21.1C5.3 21 5.3 20.9 5.4 20.8C5.4 20.6 5.5 20.5 5.6 20.3C5.8 19.7 6 19.1 6.2 18.5C6.3 18.3 6.4 18.1 6.4 17.9C5.6 17.5 5.5 17.6 5.2 17.4C4.6 17.1 4.2 16 4.9 15.5C5.1 15.3 5.4 15.2 5.6 15C6.2 14.6 7 14.3 7.7 14C7.9 13.9 8 13.8 8.2 13.8L8.4 13.7C8.5 13.5 8.6 13.3 8.6 13.1C8.8 12.6 9 12.2 9.1 11.9C9.2 11.7 9.2 11.5 9.2 11.5C9.2 11.4 9.1 11.6 9 11.8V11.9C8.8 12.2 8.8 12.2 8.9 11.9V11.8C9 11.6 9.1 11.4 9.2 11.2V11.1C9.2 11 9.3 10.9 9.4 10.9C9.5 10.7 9.6 10.4 9.7 10.2V10.1C9.8 9.9 9.8 9.7 9.9 9.6C9.9 9.6 10 9.5 10 9.4C10.1 9.3 10 9.3 10.1 9.2C10.2 9.1 10.2 9 10.3 8.9C10.4 8.8 10.3 8.8 10.3 9C10.1 9.4 10.3 9.4 10.5 8.9C10.6 8.6 10.7 8.5 10.6 8.6H10.5C10.6 8.4 10.7 8.3 10.7 8.1C10.9 7.7 11 7.4 11.1 7.1C11.8 5.3 12.5 4 13 2.9C13.1 2.6 13.4 2.5 13.6 2.5C14.1 2.5 14.6 3 14.5 3.5C13.9 4.8 13.2 6.6 12.5 7.8L12.3 8.2L12.1 8.6C12 8.7 12 8.9 11.9 9L11.7 9.4C11.6 9.5 11.6 9.7 11.5 9.8C12 9.8 11.9 9.9 11.8 10C11.7 10.1 11.7 10.3 11.6 10.4C11.5 10.6 11.4 10.8 11.4 11C11.3 11.2 11.3 11.4 11.2 11.6C11.1 11.7 11.1 11.8 11 12C11 12.1 10.9 12.3 10.8 12.4V12.5C10.8 12.6 10.7 12.7 10.6 12.8C10.6 12.9 10.5 13 10.5 13.1C10.7 13 10.9 13 11 12.9L11.6 12.7C11.8 12.6 11.9 12.5 12.1 12.5L12.7 12.3C12.9 12.2 13 12.2 13.2 12.1L13.8 11.9L14.4 11.7L15 11.5C15.3 11.4 15.2 11.4 15.5 11.3C15.7 11.2 15.8 11.2 16 11.1C16.2 11.1 16.5 11 16.7 11C16.7 11 16.8 11 16.9 11C17.2 10.9 17.5 10.9 17.7 10.8C17.9 10.7 18.1 10.7 18.3 10.6C18.5 10.5 18.6 10.5 18.8 10.4C19 10.3 19.2 10.3 19.4 10.2C19.6 10.1 19.7 10.1 19.9 10L20.5 9.8L21.1 9.6L21.6 9.4C21.8 9.3 22 9.3 22.2 9.2C22.4 9.1 22.7 9 22.9 9C22.9 9 22.8 9 22.7 9C22.6 9 22.5 9 22.5 9L22.9 8.9L23.3 8.8L23.9 9C25.5 8.6 24.5 10.3 24.5 10.3C24.6 10.3 23.6 11.2 23.3 11.3C23.1 11.4 23.5 10.6 23.4 10.6C22 11 20.6 11.5 20.6 11.5C20.6 11.5 21.3 11.3 22.2 11.1C22.3 11.1 22.3 11.1 22.5 11C22.8 10.9 23 10.8 23.3 10.8C23.1 10.9 23 10.9 22.9 10.9C22.8 10.9 22.8 11 22.7 11C22.7 11 22.7 11 22.6 11C22.5 11 22.5 11 22.4 11C22.3 11 22.2 11.1 22.1 11.1C22 11.1 21.9 11.2 21.6 11.3H21.5C21.3 11.4 21.1 11.4 20.9 11.5C20.7 11.6 20.5 11.6 20.3 11.7C20.3 11.7 20.2 11.7 20.3 11.6C20.4 11.5 20.2 11.5 19.8 11.7C19.2 11.9 19.2 12 19.7 11.9C19.9 11.8 20 11.8 19.9 11.9C19.7 11.9 19.6 12 19.5 12.1C19.6 12 19.1 12.3 19.2 12.2C19 12.3 18.8 12.3 19 12.3C18.7 12.4 18.4 12.5 18.2 12.5C18.2 12.5 18.2 12.5 18.1 12.5H18.2C18 12.6 17.7 12.7 17.5 12.7L17.2 12.8C17.1 12.8 17 12.9 16.8 13C16.7 13 16.7 13 16.7 13L15.8 13.3C15.2 13.4 15.1 13.3 15.8 13.1C16.1 13 16.3 12.9 16.2 12.9C16.1 12.9 15.2 13.2 14 13.5C12.9 13.9 12.1 14.1 12.3 14.1C12.5 14 12.7 13.9 12.7 13.9C12.8 13.8 12.8 13.8 12.9 13.8C12.9 13.8 13.2 13.7 13.6 13.6C14.2 13.4 14.2 13.4 13.7 13.5C13.5 13.5 13.4 13.6 13.2 13.7L13.8 13.5C14.1 13.4 14.4 13.3 14.5 13.3C14.6 13.3 14.7 13.3 14.9 13.2C15.2 13 15.5 12.9 15.4 13C15.3 13 16.9 12.5 17.3 12.4H17.4C18.1 12.2 21 11.3 21.4 11.2C21.6 11.2 21.8 11.1 21.8 11.1C21.8 11.1 22.7 10.8 23.9 10.4C25.1 10.1 23.2 10.4 21.8 11C19.4 11.7 17.6 12.3 17.7 12.2C17.8 12.2 17.6 12.2 17.4 12.3C17.2 12.4 17 12.4 16.7 12.5C15.9 12.8 15.3 13 15.2 13C15.1 13 14.7 13.1 14.4 13.2C14 13.3 13.9 13.4 14.2 13.3C14.4 13.3 14.3 13.3 13.6 13.6C12.8 13.9 12.6 13.9 12.6 13.8C12.6 13.8 12.5 13.8 12.4 13.8C12.4 13.9 12 14 11.6 14.2C11.2 14.4 10.9 14.4 10.9 14.4C10.9 14.4 10.8 14.4 10.7 14.5C10.7 14.5 10.5 14.6 10.2 14.7C10 15.2 9.8 15.6 9.6 16.2C9.4 16.8 9.2 17 9.1 17.5C9.3 17.6 9.6 17.7 9.2 17.6L9.3 17.7H9.4C9.4 17.7 9.4 17.7 9.5 17.7L9.6 17.8C12.8 19.4 15.4 20.6 18.8 21.8C18.9 21.8 18.8 21.8 18.9 21.8C19 21.8 19.1 21.9 19.1 21.9C19.2 21.9 19.2 21.9 19.2 21.9C19.2 21.9 19.3 22 19.4 22H19.5H19.6C19.7 22 19.7 22.1 19.8 22.1H19.9L20 22.2H20.2H20.1H20H19.9C19.9 22.2 20 22.3 20.1 22.3L20.2 22.4C20.3 22.4 20.4 22.4 20.4 22.4H20.5H20.6L20.7 22.5L20.8 22.6C20.9 22.6 20.9 22.6 21 22.6C21 22.6 21 22.6 21.1 22.6C21.2 22.6 21.3 22.6 21.3 22.6C21.3 22.6 21.3 22.6 21.2 22.6C21.3 22.7 21.6 22.8 21.8 22.9C22.2 23.1 22.6 23.2 22.6 23.2C22.5 23.2 22.7 23.3 23.2 23.5C23.5 23.6 23.5 23.6 23.5 23.5C23.5 23.5 23.5 23.4 23.6 23.5V23.6C23.6 23.6 23.6 23.7 23.7 23.7C23.8 23.7 23.8 23.7 23.8 23.7C23.8 23.7 23.8 23.7 23.9 23.7L23.8 23.8C23.8 23.8 24.1 23.9 24.2 23.9C24.5 24.4 24.7 24.4 24.7 24.4C24.6 24.6 24.6 24.7 23.4 24.3C23.4 24.3 23.5 24.4 23.7 24.5C23.9 24.6 23.9 24.6 23.9 24.6H23.8H23.7C23.7 24.6 23.9 24.7 24.1 24.7C24.2 24.8 24.1 24.8 24 24.8C23.9 24.8 23.8 24.8 23.8 24.8C23.8 24.8 23.9 24.8 24 24.9C24.1 25 24.2 24.9 24.2 24.9H24.3C24.4 24.9 24.4 24.9 24.4 24.9C24.4 24.8 24.6 24.8 24.5 24.9V25C24.8 24.8 24.9 24.9 25 25C25.3 25.1 25.3 25 25 25ZM23.7 23.4C23.7 23.4 23.5 23.4 23.5 23.3V23.2C23.5 23.2 23.5 23.2 23.6 23.2L23.7 23.4ZM22.8 22.7L22.7 22.8H22.6C22.6 22.8 22.7 22.7 22.8 22.7ZM14.9 13.3C14.7 13.5 14.5 13.5 14.3 13.6C14.1 13.7 13.9 13.7 13.6 13.8C13.3 13.9 13.4 13.8 14.1 13.6C14.2 13.6 14.3 13.6 14.3 13.5C14.7 13.4 14.9 13.3 14.9 13.3Z" fill="#29706d"/>
<path d="M10.3 10.2C10.3 10.1 10.4 9.99999 10.5 9.79999L10.4 9.89999C10.3 10.2 10.2 10.3 10.3 10.2Z" fill="#FF6333"/>
<path d="M10 10.7C10.2 10.1 10.4 9.70001 10.4 9.70001C10.4 9.70001 10.2 10 10 10.4C9.80001 10.9 9.70001 11.3 9.70001 11.4C9.70001 11.4 9.80001 11.1 10 10.7Z" fill="#FF6333"/>
</svg>
