<svg width="108" height="43" viewBox="0 0 108 43" fill="none" xmlns="http://www.w3.org/2000/svg">
<path d="M13.6984 4.992C14.492 4.992 15.2511 5.71498 15.0441 6.40353C14.078 8.33148 13.1118 10.9824 12.0767 12.7726L11.8351 13.3579L11.5591 13.9087C11.4556 14.0809 11.4211 14.3563 11.3176 14.5629L11.0415 15.1137C10.938 15.2858 10.869 15.5268 10.7655 15.699C10.662 15.8711 10.593 16.1121 10.4895 16.2842C10.3859 16.4564 10.3514 16.6974 10.2479 16.8695C10.1099 17.1794 9.97188 17.4548 9.93738 17.7991C9.83387 18.0745 9.76486 18.3843 9.66134 18.6597C9.55783 18.8319 9.48882 19.0384 9.41981 19.2106C9.3853 19.3483 9.24728 19.6237 9.17827 19.7614C9.17827 19.7958 9.14377 19.8647 9.14377 19.8991C9.10926 20.0368 8.97124 20.209 8.90224 20.3467C8.86773 20.4844 8.76422 20.6221 8.72971 20.7598C8.97124 20.6565 9.28179 20.5877 9.52332 20.4844L10.3514 20.209C10.6275 20.1057 10.869 19.968 11.145 19.8991L11.9732 19.6237C12.2492 19.5204 12.4907 19.486 12.7668 19.3827L13.5949 19.1073L14.423 18.8319L15.2511 18.5565C15.6652 18.4187 15.5617 18.4532 15.9757 18.3155C16.2173 18.2122 16.4933 18.1433 16.7003 18.04C17.0109 18.0056 17.3904 17.9023 17.701 17.8679C17.7355 17.8679 17.8735 17.8335 17.9425 17.8335C18.3565 17.7302 18.7706 17.6613 19.1847 17.5236C19.4607 17.4203 19.7712 17.3515 20.0473 17.2482C20.3233 17.1449 20.5649 17.0761 20.8409 16.9728C21.1169 16.8695 21.393 16.8351 21.669 16.7318C21.945 16.6285 22.1866 16.5941 22.4626 16.4908L23.2907 16.2154L24.1188 15.94L24.9125 15.699C25.1885 15.5957 25.499 15.5613 25.7751 15.458C26.1546 15.3547 26.4652 15.217 26.8447 15.0793H26.8792L27.5348 14.9416L28.501 14.6661C30.8818 14.0809 29.3636 16.5597 29.4326 16.5597C29.5361 16.5597 28.0869 17.9368 27.6728 18.0745C27.3623 18.1778 28.0524 17.0072 27.8109 17.0072C25.7061 17.6613 23.6358 18.3499 23.6358 18.3843C23.6358 18.3843 25.4645 17.9368 27.7073 17.2482C27.4658 17.3515 27.2933 17.3859 27.1553 17.4203C27.0518 17.4203 26.9827 17.5236 26.8792 17.5236C26.8447 17.5236 26.8447 17.5581 26.7757 17.5581C26.6722 17.5581 26.5342 17.5925 26.4652 17.5925C25.8096 17.7646 26.1546 17.6958 25.223 18.0056L25.1885 18.04C25.154 18.04 25.085 18.0745 25.0505 18.0745C24.7744 18.1778 24.4639 18.2466 24.1879 18.3499C23.8773 18.4532 23.6013 18.4876 23.2562 18.5909C23.2217 18.5909 23.1527 18.5565 23.2217 18.4876C23.3252 18.3843 23.1182 18.3843 22.5316 18.5909C21.5655 18.9007 21.5655 19.1073 22.3591 18.8663C22.6696 18.763 22.7732 18.763 22.6006 18.8319C22.3591 18.8663 22.1866 18.9696 21.945 19.0729C22.1176 18.9696 21.2895 19.3483 21.4965 19.245C21.2204 19.3483 20.9444 19.4171 21.1859 19.3483C20.7719 19.486 20.3578 19.5893 19.9783 19.727C19.9438 19.727 19.9438 19.7614 19.8748 19.7614H19.8403L19.9438 19.727C19.5642 19.8303 19.2192 19.968 18.8396 20.1057L18.4256 20.2434C18.253 20.2778 18.046 20.4155 17.8735 20.4844C17.77 20.5188 17.77 20.5188 17.7355 20.5188L16.3553 20.932L16.2518 21.0008C15.2856 21.1729 15.2511 21.0352 16.2518 20.7254C16.7003 20.5877 16.9764 20.4844 16.8383 20.4844C16.7348 20.4844 15.2856 20.8975 13.6294 21.4484C11.9732 21.9992 10.8345 22.3779 11.076 22.2746C11.3176 22.1713 11.6281 21.9992 11.7316 21.8959C11.8696 21.7926 11.9042 21.7582 11.9732 21.7926C11.9732 21.8271 12.4217 21.6894 13.0428 21.5172C13.9744 21.2074 14.0089 21.2074 13.2153 21.3795C12.9393 21.4139 12.6978 21.5517 12.4217 21.6205L13.2498 21.3451C13.6984 21.2074 14.1815 21.0697 14.2505 21.0697C14.3885 21.1041 14.5265 21.0697 14.8026 20.8975C15.2166 20.6565 15.7687 20.4844 15.5962 20.6221C15.4927 20.6565 17.839 19.9336 18.4946 19.6926C18.4946 19.6926 18.5981 19.6581 18.6326 19.6581C19.6332 19.2794 24.0153 18.0056 24.5674 17.9023C24.947 17.8679 25.1195 17.7646 25.1195 17.7302C25.1195 17.6958 26.4997 17.2138 28.2939 16.6629C30.0882 16.1465 27.2243 16.6629 25.1885 17.5236C21.5655 18.6253 18.8396 19.4516 19.0466 19.3483C19.1502 19.3139 18.9431 19.3827 18.5981 19.486C18.322 19.5893 17.9425 19.6581 17.5284 19.7958C16.3898 20.209 15.4927 20.4844 15.2856 20.4844C15.0786 20.4844 14.492 20.6221 14.078 20.7598C13.4224 20.932 13.3879 21.0008 13.7674 20.932C14.147 20.8975 13.8709 20.9664 12.8013 21.3451C11.5936 21.7582 11.3176 21.7926 11.2831 21.7238C11.2486 21.6894 11.1105 21.6894 11.0415 21.7582C11.007 21.8615 10.4895 22.1369 9.90287 22.3091C9.24728 22.5501 8.83323 22.6189 8.79872 22.5845C8.76422 22.5501 8.69521 22.5501 8.55719 22.6878C8.52268 22.7222 8.28115 22.8255 7.86709 22.9976C7.55655 23.7206 7.28051 24.3747 6.90096 25.201C6.52141 26.1305 6.34888 26.4404 6.07284 27.0945H6.10735C5.0377 26.6814 7.34952 27.6109 6.27987 27.1978L6.4524 27.3011C6.4869 27.3011 6.59042 27.3355 6.62492 27.3355C6.65942 27.3355 6.65942 27.3699 6.72843 27.3699C6.76294 27.4043 6.83195 27.4732 6.86645 27.4732C11.6971 29.8143 15.5962 31.6045 20.6339 33.4292C20.7719 33.4636 20.6684 33.4292 20.8064 33.4636C20.9099 33.498 21.0479 33.6013 21.1169 33.6013H21.1514C21.2895 33.6357 21.2549 33.6357 21.324 33.6357C21.3585 33.6357 21.4965 33.739 21.5655 33.739C21.6 33.739 21.669 33.7734 21.7035 33.7734C21.738 33.7734 21.8415 33.8079 21.876 33.8079C21.9796 33.8423 22.0141 33.9111 22.1176 33.9111C22.1521 33.9111 22.2556 33.9456 22.2901 33.9456C22.3246 33.9456 22.3936 34.0488 22.4281 34.0488H22.6006L22.6351 34.0833C22.6351 34.0833 22.7387 34.1866 22.9457 34.221H22.9802C23.0147 34.221 23.1182 34.3243 23.1527 34.3243C23.2907 34.3587 23.3942 34.3587 23.4288 34.3587H23.5323C23.5668 34.3587 23.6358 34.3931 23.6703 34.3931H23.5323C23.5668 34.3931 23.6358 34.4276 23.6703 34.4276C23.7048 34.4276 23.8083 34.5308 23.8428 34.5308L24.0153 34.6341C24.1534 34.6685 24.1879 34.6685 24.2569 34.6685C24.2914 34.6685 24.2914 34.703 24.3604 34.703H24.3949C24.4984 34.7374 24.6364 34.7374 24.7054 34.7374C24.878 34.8407 25.2575 34.9784 25.6716 35.1505C26.3272 35.426 26.8792 35.6669 26.9137 35.6669C26.9482 35.6669 27.0173 35.7014 27.0518 35.7014C27.0173 35.7014 26.9482 35.7358 26.9137 35.7358C26.7757 35.7358 27.0173 35.8735 27.7419 36.1489C28.1559 36.2866 28.1904 36.2866 28.1904 36.1834C28.1904 36.1489 28.2249 36.0801 28.2939 36.1489C28.3284 36.1834 28.2939 36.2522 28.2939 36.2522C28.2939 36.2522 28.3284 36.3555 28.4319 36.3899C28.5355 36.4243 28.6045 36.3899 28.6045 36.3555C28.6045 36.3211 28.639 36.3211 28.708 36.3211H28.7425C28.777 36.3211 28.7425 36.3555 28.708 36.3555C28.6735 36.3555 28.6045 36.4588 28.6045 36.4588C28.6045 36.4932 29.053 36.6309 29.1565 36.6309C30.1227 37.9047 29.9847 37.1818 29.9502 37.4227C29.8466 37.6637 29.7776 37.8359 28.0524 37.2506C28.0524 37.285 28.2249 37.4227 28.4665 37.4916C28.708 37.5605 28.846 37.6293 28.846 37.6293H28.6735C28.639 37.6293 28.57 37.5949 28.57 37.6293C28.57 37.6637 28.8805 37.8015 29.122 37.8015C29.2256 37.9047 29.0875 37.9736 28.9495 37.9392C28.846 37.9047 28.708 37.9047 28.708 37.9047C28.708 37.9047 28.8115 37.9392 28.9495 38.008C29.0875 38.0769 29.2601 38.0424 29.2601 38.0424C29.2601 38.0424 29.3636 38.008 29.4326 38.0424C29.5361 38.0769 29.5706 38.0769 29.5706 38.0424C29.6051 37.9392 29.8811 37.8703 29.7431 38.008C29.7086 38.008 29.7086 38.1113 29.7086 38.1457C29.7086 38.1802 29.8466 38.3179 30.0882 38.3867C30.4677 38.5244 30.6057 38.6621 30.0537 38.5244C28.2939 38.008 27.7073 37.6982 27.8109 37.6982C27.9144 37.6982 27.9144 37.6982 27.6383 37.5949C27.4658 37.5605 27.2243 37.4916 27.2243 37.4916C27.2243 37.4916 26.5342 37.3195 25.7406 37.044C24.6709 36.6653 24.9125 36.7342 23.8428 36.3555C23.1527 36.1145 22.7732 36.1145 22.6006 36.0801C19.0811 34.944 8.28115 30.2962 5.24473 29.0224C4.96869 29.8143 4.65815 30.7094 4.14057 32.2586C4.14057 32.293 4.10607 32.293 4.10607 32.3619C3.93355 32.7406 3.86454 33.0504 3.79553 33.4292C3.79553 33.4292 3.76102 33.5324 3.76102 33.5669C3.72652 33.6701 3.72652 33.7046 3.65751 33.8079C3.623 33.98 3.51949 34.221 3.48498 34.3931C3.45048 34.5308 3.38147 34.7718 3.34696 34.9095C3.34696 34.944 3.31246 34.944 3.31246 35.0128C3.27795 35.185 3.20895 35.426 3.17444 35.5981C3.13994 35.7702 3.07093 36.0112 3.03642 36.1834C3.00192 36.3555 2.93291 36.5965 2.8984 36.7686C2.82939 36.9408 2.76038 37.1818 2.76038 37.3539V37.526C2.76038 37.6637 2.72588 37.767 2.72588 37.9047C2.31182 41.6573 2.96741 39.7982 3.86454 39.2818C4.14057 39.1441 3.623 39.936 3.83003 40.1081C4.00256 40.1425 4.14057 40.2114 4.24409 40.2114C3.86454 41.2098 2.82939 42.5525 2.00128 42.3803C0.621086 42.1049 0.310542 41.5196 0.172523 40.5557C0.172523 40.4179 0.138019 40.3147 0.138019 40.177C0.103514 39.936 -0.103515 38.9376 0.138019 37.6637C0.138019 37.5605 0.172523 37.4916 0.172523 37.3883C0.207028 36.8031 0.345047 36.2522 0.483066 35.6325C0.586581 35.2538 0.7246 34.8407 0.79361 34.4964C0.79361 34.3931 0.828114 34.2554 0.828114 34.1866C0.828114 34.1866 0.862619 34.1521 0.931629 34.1521C1.06965 34.0488 1.10415 34.1177 0.966134 34.5653C0.931629 34.8063 0.828114 34.9784 0.79361 35.2194C0.552076 36.0456 0.483066 36.4243 0.379552 36.8375C0.276038 37.2162 0.276038 37.2506 0.379552 37.0785C0.414057 36.9408 0.65559 35.9424 1.03514 34.5997C1.13866 34.3243 1.20767 34.0488 1.31118 33.739C1.4492 33.3259 1.58722 32.8783 1.69073 32.534C2.00128 31.5356 2.24281 30.8815 2.20831 31.0192C2.07029 31.2946 2.07029 31.2602 2.07029 30.9848C2.07029 30.7438 2.03578 30.7438 1.96677 31.1225C1.72524 32.2586 1.58722 32.6373 1.24217 33.3259L1.00064 33.7734C1.00064 33.6357 1.03514 33.498 1.03514 33.3603C1.03514 33.3259 1.06965 33.257 1.06965 33.2226C1.10415 33.1193 1.17316 32.9816 1.20767 32.8095C1.24217 32.6717 1.24217 32.534 1.31118 32.3963C1.34569 32.1553 1.48371 31.9488 1.58722 31.7078C1.86326 30.8471 2.1738 29.952 2.51885 29.0913C2.65687 28.7126 2.76038 28.5404 2.8984 28.1617C1.75974 27.5765 1.55272 27.6453 1.10415 27.4388C0.138019 26.9223 -0.448563 25.4075 0.65559 24.5468C0.966134 24.2714 1.34569 24.0304 1.72524 23.8239C2.69137 23.2386 3.76102 22.8255 4.83067 22.4123C5.10671 22.3091 5.34824 22.1713 5.62428 22.1025L5.90032 21.9648C6.00383 21.7238 6.14185 21.4139 6.27987 21.1041C6.55591 20.4155 6.83195 19.8303 7.00447 19.3483C7.14249 18.9696 7.177 18.763 7.177 18.6942C7.177 18.5909 7.03898 18.8319 6.90096 19.1417C6.90096 19.1762 6.86645 19.245 6.86645 19.2794C6.62492 19.7958 6.55591 19.7958 6.69393 19.245V19.1417V19.1073C6.83195 18.7974 7.00447 18.4532 7.14249 18.1433C7.14249 18.1089 7.14249 18.04 7.177 18.0056C7.2115 17.8679 7.34952 17.7646 7.41853 17.6269C7.59105 17.2482 7.72907 16.9039 7.86709 16.5252L7.9016 16.4219C8.03962 16.1465 8.14313 15.8367 8.28115 15.5613C8.17764 15.7334 8.31565 15.5268 8.41917 15.3203C8.52268 15.1481 8.45367 15.1826 8.55719 15.0104C8.6607 14.8727 8.72971 14.7006 8.79872 14.5629C8.90224 14.4252 8.83323 14.4596 8.76422 14.7006C8.48818 15.3547 8.76422 15.2514 9.04026 14.5629C9.21278 14.1497 9.28179 14.012 9.14377 14.0464C9.10926 14.0464 9.00575 14.0809 9.00575 14.0464C9.10926 13.8055 9.24728 13.5989 9.31629 13.3579C9.55783 12.8071 9.76486 12.2562 9.97188 11.8775C10.9725 9.22659 12.0422 7.26422 12.8013 5.6117C12.9738 5.16414 13.3534 5.02643 13.7674 5.02643V4.992H13.6984ZM0.517571 35.6325C0.517571 35.7358 0.483066 35.8735 0.483066 36.0112C0.483066 36.1489 0.379552 36.2866 0.379552 36.3899C0.345047 36.5621 0.276038 36.5621 0.379552 36.1145C0.414057 35.8047 0.517571 35.5981 0.517571 35.5981V35.6325ZM0.621086 38.1113C0.241533 38.972 0.79361 41.9672 1.13866 41.2098C0.65559 40.9688 0.621086 38.6966 0.621086 38.1113ZM3.45048 28.2994C3.20895 28.8503 3.00192 29.4011 2.65687 30.2618C2.1393 31.6733 1.65623 33.0849 1.24217 34.5653C0.931629 35.7702 0.7246 36.6309 0.65559 37.3883C0.65559 37.4227 0.621086 37.4916 0.621086 37.526V37.6293C0.65559 37.526 0.759105 37.4916 0.79361 37.3883C0.897124 36.5965 1.10415 35.7014 1.4492 34.5653C1.72524 33.6013 2.07029 32.3619 2.62236 30.8127C3.00192 29.8143 3.34696 29.1257 3.623 28.4027C3.5885 28.4027 3.45048 28.265 3.45048 28.265V28.2994ZM1.48371 24.7878C1.86326 24.3403 3.03642 23.7894 3.83003 23.3763C4.79617 22.9632 4.65815 22.9976 4.65815 22.9976C4.69265 22.9632 4.69265 22.8943 4.69265 22.8943C4.55463 22.8599 1.34569 24.3059 1.48371 24.7878ZM1.93227 35.0817C1.93227 35.185 1.89776 35.3227 1.89776 35.4604C1.89776 35.5981 1.79425 35.7358 1.75974 35.8391C1.72524 36.0112 1.72524 35.9768 1.79425 35.5637C1.82875 35.2538 1.93227 35.0472 1.93227 35.0472V35.0817ZM3.17444 24.0304C2.1738 24.6846 2.31182 24.4436 1.89776 24.9944C2.07029 24.9944 2.44984 24.478 3.00192 24.2714C3.51949 24.0993 3.5885 23.996 3.5885 23.996C3.5885 23.996 3.13994 24.1337 3.17444 24.0304ZM2.20831 33.9456C2.20831 34.3587 4.27859 28.6782 4.27859 28.6782L4.10607 28.5749C4.10607 28.5749 2.20831 33.5324 2.20831 33.9456ZM2.34633 29.8487C2.24281 30.2274 2.38083 30.0208 2.72588 29.1601C3.03642 28.024 2.82939 29.1257 2.96741 28.747C2.72588 29.5733 2.82939 29.4011 3.27795 28.2306C3.24345 28.2306 3.10543 28.1273 3.03642 28.1273C2.8984 28.5749 2.48434 29.2978 2.34633 29.8487ZM2.48434 30.0208C2.41533 30.3651 2.34633 30.434 2.41533 30.2962C2.44984 30.2618 2.51885 30.1241 2.55335 30.0208C2.58786 29.9175 2.65687 29.7798 2.65687 29.711V29.6765C2.62236 29.6765 2.58786 29.8143 2.48434 30.0208ZM2.44984 25.2354C2.44984 25.2354 3.86454 24.4436 3.79553 24.4436C3.65751 24.4436 2.1393 25.2698 2.44984 25.2354ZM4.07157 32.775H4.03706L4.07157 32.7406V32.775ZM4.07157 23.755C4.07157 23.755 4.3476 23.6173 4.38211 23.6173C4.38211 23.6862 4.07157 23.755 4.07157 23.755ZM4.24409 40.2114C4.24409 40.177 4.3476 39.9704 4.3476 39.936H4.38211C4.41661 39.936 4.55463 40.2114 4.24409 40.2114ZM6.24537 23.7206C6.24537 23.7206 5.24473 25.8895 5.17572 25.9928C5.14121 26.1305 5.00319 26.3027 5.17572 26.3715C5.34824 26.4059 6.5214 23.5829 6.5214 23.5829L6.24537 23.7206ZM6.24537 20.5188L6.10735 20.7942C5.7968 21.5861 5.69329 21.7238 5.7968 21.3451C5.90032 21.0352 5.93482 20.7942 6.03834 20.6221C6.14185 20.45 6.21086 20.3123 6.34888 20.1057L6.4524 20.0024C6.4524 20.0024 6.38339 20.1401 6.24537 20.5188ZM6.24537 21.3451C6.21086 21.4828 6.14185 21.6549 6.10735 21.7926C6.07284 21.7926 5.96933 21.8271 5.93482 21.8271C5.96933 21.7238 6.07284 21.5861 6.10735 21.4484C6.24537 21.0697 6.34888 20.932 6.34888 20.932C6.34888 20.932 6.34888 21.0697 6.24537 21.3451ZM8.28115 17.1105C8.17764 17.2138 8.03962 17.2482 8.03962 17.2482C8.00511 17.3515 7.9016 17.4203 7.9016 17.4892C7.72907 17.799 7.31502 18.8319 7.10799 19.3139C7.07348 19.486 7.00447 19.5893 7.00447 19.5893C7.177 19.4516 6.90096 19.8991 6.69393 20.1746C6.5214 20.4155 6.52141 20.4844 6.55591 20.5877C6.55591 20.6221 6.4524 21.0008 6.31438 21.3107C6.27987 21.4484 6.14185 21.5861 6.07284 21.7238C6.10735 21.7238 6.17636 21.6894 6.21086 21.6894L6.24537 21.6549C6.55591 20.8631 6.65942 20.691 6.62492 20.9664C6.59042 21.2418 6.62492 21.2074 6.79744 20.7254C6.93546 20.4155 7.07348 20.0024 7.07348 19.8647C7.07348 19.7614 7.177 19.5893 7.24601 19.3483C7.34952 19.0729 7.48754 18.6597 7.69457 18.2122C8.00511 17.5581 8.21214 17.0761 8.21214 17.0761V17.1105H8.28115ZM7.76358 16.7662C7.48754 17.4548 7.24601 18.1089 7.24601 18.1778C7.24601 18.2466 7.48754 17.9023 7.76358 17.2138L7.79808 17.0761C8.07412 16.3875 8.35016 15.7334 8.35016 15.6645C8.31565 15.6645 8.03962 16.1121 7.76358 16.7662ZM7.45303 21.2418C7.45303 21.2418 7.62556 21.2074 7.69457 21.1041C7.79808 20.5877 11.2141 12.5316 11.1796 12.7382L11.145 12.7038C10.8345 12.6693 7.45303 21.2418 7.45303 21.2418ZM7.97061 22.7566C7.97061 22.791 7.9361 22.791 7.9361 22.8599C8.03962 22.8255 8.21214 22.7566 8.35016 22.7222C8.93674 22.4812 9.59233 22.2058 9.59233 22.1713C8.97124 22.2402 8.52268 22.5845 7.97061 22.7566ZM8.10863 22.3779L8.07412 22.4812C9.90287 21.6894 12.4907 21.0008 14.8371 20.0024C12.7323 20.691 10.0754 21.5172 8.10863 22.3779ZM8.31565 16.2154C8.17764 16.4908 8.14313 16.6285 8.17764 16.5941C8.21214 16.4564 8.31565 16.2154 8.41917 16.0432C8.41917 16.0777 8.31565 16.1465 8.31565 16.2154ZM9.62684 19.1073V19.245V19.0729H9.66134L9.62684 19.1073ZM12.4217 21.2762C12.4217 21.3107 12.3182 21.4139 12.1457 21.4484C11.9732 21.4828 11.8351 21.5517 11.8351 21.4828C11.8351 21.4484 11.9387 21.3451 12.1112 21.3107C12.2147 21.2762 12.3527 21.2762 12.3872 21.2762H12.4217ZM14.354 21.4139C14.2505 21.4484 14.078 21.4484 13.9744 21.5172C12.9048 21.8959 12.7668 21.9304 13.2498 21.8271C13.6639 21.7238 14.0434 21.6894 14.2505 21.5861C14.4575 21.4828 14.699 21.4139 14.9406 21.2762C15.0441 21.2418 15.0786 21.1729 15.0786 21.1729C15.0441 21.2074 14.8026 21.2762 14.354 21.4139ZM15.9412 18.2122H16.1137C16.1482 18.2122 16.2173 18.1778 16.2518 18.1778C16.1827 18.1778 16.0447 18.2122 15.9412 18.2122ZM17.4939 34.1521L17.5284 34.1866H17.3904C17.2869 34.1866 17.2179 34.0833 17.2179 34.0833H17.2524C17.3214 34.1177 17.4594 34.1521 17.4939 34.1521ZM19.0811 19.8303L18.9086 19.8647C18.8741 19.8647 18.7706 19.8991 18.7361 19.8991C17.908 20.1746 17.4939 20.3467 17.5974 20.3467C17.701 20.3467 18.1495 20.209 18.8051 20.0368C19.0466 20.0024 19.3227 19.8991 19.5297 19.7958C20.4958 19.5204 21.1514 19.245 21.0479 19.245C20.9099 19.2794 20.0128 19.5549 19.0811 19.8303ZM17.8735 34.1521C18.0115 34.1866 18.0115 34.2554 17.908 34.2554C17.7355 34.2554 17.6319 34.221 17.6665 34.1521H17.77H17.8735ZM18.4256 34.3243L18.4601 34.3587C18.4601 34.3931 18.4256 34.3587 18.3565 34.3587C18.2875 34.3587 18.253 34.2554 18.322 34.2554L18.4256 34.3243ZM18.6671 34.0144C18.6671 34.1177 18.5636 34.1521 18.4946 34.1177C18.4256 34.0833 18.3911 34.0144 18.4601 34.0144C18.4946 34.0144 18.6326 33.98 18.6326 33.98C18.6326 33.98 18.6671 33.98 18.6671 34.0144ZM19.4952 34.5308C19.5297 34.5308 19.5987 34.5653 19.6332 34.5653C19.5987 34.5653 19.5297 34.5997 19.4952 34.5997C19.4607 34.5997 19.2537 34.5653 19.2192 34.5653C19.1847 34.5653 19.1157 34.462 19.0811 34.462H19.2192C19.2882 34.462 19.4262 34.5308 19.4952 34.5308ZM19.7022 34.462L19.5987 34.4964V34.4276C19.5987 34.3931 19.6332 34.3243 19.6332 34.3243C19.7022 34.3243 19.7022 34.462 19.7022 34.462ZM20.2543 19.3139C19.7367 19.4516 19.5987 19.486 19.8748 19.4171C20.0128 19.3827 20.1508 19.2794 20.3233 19.245C20.4958 19.2106 20.7029 19.1073 20.7719 19.1073H20.8754C20.9099 19.1073 20.6684 19.1762 20.2543 19.3139ZM20.1163 34.5308C20.2198 34.5653 20.2888 34.6341 20.2888 34.6685C20.2888 34.6685 20.1853 34.6685 20.1163 34.6341C20.0128 34.5997 19.9783 34.5308 19.9783 34.5308H20.0128H20.1163ZM20.7719 34.8751C20.9099 34.9095 21.0824 34.9784 21.1514 34.9784H21.1859C21.2204 34.9784 21.2204 35.0817 21.2204 35.0817C21.2204 35.1161 21.1859 35.1161 21.1169 35.1161C21.0134 35.1161 20.9444 35.0817 20.7029 35.0817C20.5994 35.0817 20.4268 35.0472 20.3923 35.0472C20.3578 35.0472 20.2543 35.0128 20.2543 34.944C20.2198 34.9095 20.2543 34.8407 20.3578 34.8407H20.3923C20.4958 34.8407 20.6339 34.8407 20.7719 34.8751ZM20.5303 34.6685L20.6339 34.703C20.7374 34.7374 20.6684 34.7374 20.5303 34.7374C20.4268 34.7374 20.3578 34.6341 20.3923 34.6341H20.4958H20.5303V34.6685ZM21.0824 34.462C21.0824 34.462 21.1169 34.4964 21.1169 34.5653C21.1169 34.6341 21.0824 34.6685 21.0824 34.6685C21.0824 34.6685 21.0479 34.5653 21.0479 34.5308V34.4964H21.0824V34.462ZM21.1169 34.7374C21.1514 34.7374 21.1514 34.7718 21.1514 34.7718C21.1169 34.8063 21.0134 34.7718 21.0134 34.7374H21.0479H21.1169ZM21.531 34.462C21.7725 34.5653 22.0486 34.703 22.2211 34.7374C22.3936 34.7718 22.4971 34.8407 22.3936 34.8407H22.1521C22.0486 34.944 21.1859 34.5997 21.0824 34.462C21.0824 34.4276 21.0824 34.3587 21.1169 34.3587C21.2204 34.3931 21.3585 34.4276 21.531 34.462ZM21.6345 35.1505C21.945 35.185 21.945 35.2538 22.3591 35.426C22.4971 35.5292 22.6351 35.5637 22.6351 35.5292C22.6351 35.4948 22.7387 35.4948 22.7732 35.4948H22.8077C22.8422 35.4948 22.8422 35.5292 22.8077 35.5981C22.7732 35.6325 22.8077 35.7014 22.9112 35.7014C23.0147 35.7014 23.0837 35.8047 23.1527 35.8391C23.2562 35.9424 23.2562 35.8735 22.9112 35.8391L22.4626 35.7358C22.4626 35.7358 22.1866 35.5981 21.876 35.4604C21.462 35.3227 21.2895 35.185 21.2895 35.1505L21.324 35.1161C21.324 35.0817 21.4965 35.1505 21.6345 35.1505ZM21.462 34.8751H21.4965C21.4965 34.8751 21.462 34.9095 21.393 34.9095C21.3585 34.9095 21.3585 34.8063 21.393 34.8063L21.462 34.8751ZM22.0831 35.0817L22.1176 35.1161C22.1176 35.1505 22.0831 35.1161 22.0141 35.1161C21.945 35.1161 21.9105 35.0128 21.9796 35.0128L22.0831 35.0817ZM23.5323 34.8063H23.5668C23.6013 34.8063 23.6703 34.9095 23.6703 34.944C23.6703 34.9784 23.6358 35.0472 23.6358 35.0472C23.6358 35.0472 23.5323 35.0128 23.4978 35.0128C23.4633 35.0128 23.4978 35.1161 23.6703 35.1505C23.8083 35.185 23.9118 35.2538 23.9118 35.185C23.9118 35.1505 24.0498 35.185 24.2224 35.2194H24.3259C24.4639 35.2538 24.5674 35.3571 24.5674 35.3571C24.5674 35.4604 24.3259 35.5292 24.2569 35.4948L24.1534 35.3915H24.2914C24.4294 35.3915 24.4294 35.3915 24.2914 35.3571L24.2569 35.3227C24.1188 35.2882 23.9808 35.2882 23.9808 35.3227C23.9808 35.3571 23.8083 35.3227 23.3252 35.185C22.9112 35.0472 22.6696 35.0128 22.6351 35.0472C22.6006 35.0817 22.5316 35.0817 22.6006 35.0128C22.6351 34.9095 22.7387 34.8751 23.0147 34.9784C23.1872 35.0128 23.3252 35.0817 23.3252 35.0128C23.3252 34.944 23.2907 34.9095 23.2217 34.9095C23.1872 34.9095 23.1872 34.9095 23.1872 34.8751C23.1872 34.8407 23.2217 34.8407 23.2217 34.8407H23.5323V34.8063ZM22.7732 34.1521H22.8767H22.9802L22.6696 34.1177C22.6351 34.1177 22.7387 34.1521 22.7732 34.1521ZM22.7387 34.3931C22.7732 34.3931 22.7732 34.4276 22.8422 34.4276C22.8767 34.4276 22.9802 34.462 22.9802 34.462C23.0147 34.4964 22.9457 34.4964 22.8422 34.462C22.7387 34.4276 22.7042 34.3587 22.7042 34.3587H22.7387V34.3931ZM22.9802 34.703V34.8063H22.8767V34.7718L22.9112 34.7374H22.9802V34.703ZM23.3252 35.6325C23.3252 35.6669 23.2907 35.7702 23.2907 35.7702V35.6669V35.5637L23.3252 35.6325ZM23.4633 35.6325V35.7358L23.3597 35.7702V35.6669L23.3942 35.6325H23.4633ZM23.7393 35.9424C23.7738 35.9424 23.7393 35.9768 23.7393 36.0456C23.7393 36.0456 23.6013 36.0801 23.4978 36.0456C23.3597 36.0112 23.3942 35.9424 23.4978 35.9424H23.5323H23.6358H23.7393ZM23.6013 35.7014C23.6013 35.7014 23.7048 35.7358 23.7393 35.8047C23.7738 35.8735 23.7393 35.8391 23.6358 35.8047L23.5323 35.7014L23.5668 35.6669V35.7014H23.6013ZM23.8428 34.944H23.7393C23.7048 34.944 23.7048 34.9095 23.7393 34.9095H23.8083L23.8428 34.944ZM24.0153 36.0801C24.0498 36.0801 24.1534 36.1145 24.1534 36.1145C24.1534 36.1489 24.0498 36.1489 24.0153 36.1489L23.9808 36.1145C23.8773 36.0801 23.8428 36.0112 23.8428 36.0112H23.8773C23.9463 36.0456 23.9808 36.0801 24.0153 36.0801ZM24.0843 34.8751L24.1188 34.9095C24.1188 34.944 24.0153 34.944 23.9808 34.944C23.9463 34.944 23.9463 34.8407 23.9463 34.8407C23.9463 34.8407 23.9808 34.8063 24.0498 34.8063L24.0843 34.8751ZM24.0153 34.3243L24.0498 34.3587L24.0843 34.3243H24.0153ZM24.4639 36.1145V36.1489L24.5674 36.1834C24.5674 36.2178 24.4639 36.2178 24.4294 36.2178C24.2914 36.1834 24.2914 36.0801 24.4294 36.0801H24.4639V36.1145ZM24.3259 34.7374H24.4294H24.5329H24.5674L24.4639 34.703C24.4294 34.703 24.3259 34.7374 24.3259 34.7374ZM24.5674 35.5292C24.6019 35.5292 24.6019 35.6325 24.6019 35.6325L24.4984 35.6669C24.4984 35.6669 24.4639 35.6325 24.4639 35.5637C24.4639 35.5637 24.4639 35.5292 24.4984 35.5292H24.5674ZM24.8089 36.0456L24.8434 36.0801C24.878 36.0801 24.878 36.1145 24.878 36.1145C24.878 36.1489 24.8434 36.1489 24.7399 36.1145L24.5674 36.0112H24.6709H24.8089V36.0456ZM24.8434 35.3915L25.016 35.4948C25.016 35.4948 24.9125 35.5292 24.7744 35.4948C24.6364 35.4604 24.6019 35.3571 24.6019 35.3571H24.6364C24.7054 35.3571 24.8089 35.3915 24.8434 35.3915ZM24.878 35.0817C25.016 35.1161 25.0505 35.2194 25.0505 35.2194C25.016 35.2538 24.6364 35.1161 24.6364 35.0817L24.6709 35.0472C24.7399 35.0128 24.8434 35.0817 24.878 35.0817ZM24.8089 34.8407L24.7744 34.8063H24.7399L24.8089 34.8407ZM25.154 36.1145C25.1885 36.1145 25.2575 36.2178 25.2575 36.2522C25.2575 36.2866 25.154 36.2866 25.1195 36.2866C25.085 36.2866 25.016 36.1834 25.016 36.1489C25.016 36.1489 25.0505 36.1145 25.1195 36.1145H25.154ZM25.292 35.3915L25.3265 35.426C25.3265 35.4604 25.223 35.4604 25.1885 35.4604C25.154 35.4604 25.085 35.3571 25.085 35.3571H25.1885H25.223H25.292V35.3915ZM25.7061 35.7014C25.7406 35.7014 25.8096 35.7358 25.8441 35.7358H25.8786C25.9821 35.7702 26.0511 35.8391 26.0166 35.8391C25.9131 35.8391 25.1885 35.6669 25.223 35.5981C25.292 35.6325 25.5335 35.6669 25.7061 35.7014ZM25.499 36.5276C25.5335 36.5276 25.6026 36.5621 25.6026 36.5621C25.6371 36.5965 25.6026 36.5965 25.499 36.5621C25.3955 36.5276 25.361 36.4588 25.3955 36.4588C25.3955 36.4932 25.43 36.5276 25.499 36.5276ZM25.7061 35.3571C25.8096 35.3571 25.8441 35.4604 25.8441 35.4948C25.8441 35.5292 25.8096 35.4948 25.8096 35.4948H25.7061C25.7061 35.4948 25.6026 35.5292 25.568 35.5292C25.5335 35.5292 25.568 35.4948 25.6026 35.4948C25.7061 35.4948 25.6371 35.3915 25.6026 35.3571H25.7061ZM25.8441 36.6653C25.8441 36.6998 25.8096 36.6998 25.8096 36.6998V36.5965L25.8441 36.5621V36.6653ZM26.1201 35.5637H26.1546C26.1891 35.5637 26.2926 35.6669 26.2926 35.7014C26.2926 35.7358 26.1546 35.7014 26.0511 35.7014C25.9131 35.6669 25.8786 35.5981 25.9131 35.5637C25.9131 35.5637 25.9476 35.5292 26.0166 35.5292H26.0511L26.1201 35.5637ZM26.4652 36.8031C26.7757 36.9408 26.7757 36.9408 26.3617 36.8375C26.2236 36.8031 26.0511 36.8031 25.9821 36.8031C25.9476 36.8031 25.9476 36.8031 25.9476 36.7686C25.9476 36.7342 25.9821 36.7342 26.0856 36.7342C26.1891 36.7342 26.3272 36.7686 26.4652 36.8031ZM26.2236 15.2514C26.3617 15.2514 26.4652 15.217 26.6032 15.217C26.6377 15.217 26.7757 15.1826 26.8447 15.1826L26.2236 15.2514ZM26.5342 35.2194L26.6722 35.2538C26.7067 35.2538 26.8102 35.1505 26.8447 35.1505C26.7757 35.1505 26.6377 35.2194 26.5342 35.2194ZM26.7757 36.7342H26.8102C26.8102 36.7686 26.8102 36.7686 26.7067 36.7342C26.6032 36.6998 26.6032 36.6998 26.6722 36.6998L26.7757 36.7342ZM26.7757 35.7702L26.8102 35.8047C26.8102 35.8391 26.7757 35.8047 26.7067 35.8047C26.6722 35.8047 26.6032 35.7702 26.6722 35.7702H26.7067H26.7757ZM26.9137 36.2178C26.9482 36.2178 26.9482 36.3211 26.9482 36.3211C26.9137 36.3555 26.8447 36.4244 26.8102 36.2866V36.1834C26.8102 36.1834 26.8792 36.2178 26.9137 36.2178ZM26.9482 37.044H26.8447C26.8102 37.044 26.8102 37.0096 26.8447 37.0096H26.9137L26.9482 37.044ZM27.3623 36.3555C27.3623 36.3899 27.3968 36.4588 27.4658 36.4932C27.5003 36.5276 27.4313 36.5276 27.3278 36.5276C27.2243 36.5276 27.1898 36.4244 27.1898 36.4244V36.3211C27.1898 36.3211 27.1898 36.3555 27.2243 36.3555C27.2588 36.3555 27.3278 36.3555 27.3278 36.3211V36.2866L27.3623 36.3555ZM27.6038 37.285C27.6038 37.3883 27.5693 37.4227 27.4658 37.3883C27.3623 37.3539 27.3623 37.285 27.4313 37.285C27.5003 37.285 27.5693 37.285 27.6038 37.2506V37.1818V37.285ZM27.7073 36.3899V36.5276C27.7073 36.5621 27.6038 36.6309 27.6038 36.6309V36.4932C27.6038 36.4588 27.6383 36.3899 27.6383 36.3899H27.7073ZM27.7764 36.0801C27.8799 36.1834 28.1559 36.2178 28.1559 36.1834L27.9834 36.0801L27.9489 36.0456C27.8454 36.0456 27.8109 36.0112 27.8109 36.0112V36.0801H27.7764ZM27.9834 37.1818C28.0179 37.1818 28.0179 37.285 28.0179 37.285C28.0179 37.285 27.9834 37.3195 27.9144 37.3195C27.8454 37.3195 27.8109 37.285 27.8109 37.2162C27.8109 37.1473 27.8454 37.1818 27.9144 37.1818H27.9834ZM28.5355 36.7342C28.639 36.7686 28.777 36.8375 28.777 36.8719C28.777 36.9063 28.8115 36.8719 28.8115 36.8375C28.8115 36.8031 28.846 36.8031 28.846 36.8031C28.846 36.8031 28.8805 36.8375 28.8805 36.9063C28.915 37.044 28.8805 37.044 28.639 37.0096C28.5355 36.9752 28.3974 36.9752 28.3974 37.0096C28.3629 37.1129 28.5355 37.1818 28.57 37.1473C28.57 37.1473 28.708 37.1129 28.8115 37.1473C28.9495 37.1818 28.984 37.1818 28.984 37.1129C28.984 37.0096 29.0185 37.0096 29.122 37.0096C29.1565 37.0096 29.122 37.1818 29.1565 37.2506L29.3981 37.4916C29.4326 37.5949 29.1565 37.3195 28.984 37.3539C28.6045 37.3195 28.0179 37.0785 28.0524 36.9408C28.0179 36.9408 28.0179 36.8375 28.0524 36.8031C28.0869 36.6998 28.0869 36.6998 28.0179 36.8031C27.9834 36.8375 27.8454 36.9063 27.8454 36.9063C27.8109 36.9063 27.8454 36.8719 27.8799 36.8031C27.9144 36.7342 27.9834 36.6998 27.8799 36.6653L27.8454 36.6309H27.8799C27.9834 36.5276 28.1904 36.6309 28.5355 36.7342ZM27.9144 37.4572L27.8799 37.4916V37.4572L27.9144 37.3539V37.4572ZM27.9144 14.8039C28.0524 14.8039 28.1559 14.7694 28.2249 14.7694C28.1559 14.735 28.0179 14.8039 27.9144 14.8039ZM28.3284 37.5605L28.3629 37.5949H28.2939C28.2594 37.5949 28.1904 37.5605 28.2594 37.5605H28.2939H28.3284Z" fill="#0D2F3F"/>
<path d="M30.3642 24.1337C31.1924 24.1682 32.124 25.201 31.3304 26.0617C30.9508 26.8535 26.8793 32.6718 29.3636 32.2931C32.4345 30.7782 36.2301 28.2995 39.0594 26.0961C36.4371 28.6437 34.8844 29.2979 34.7118 29.5388C34.5738 30.193 39.8876 25.8895 40.3016 25.2698C41.5093 24.3403 40.8882 24.96 40.9572 24.9944C40.9917 25.1665 36.2301 29.0224 40.8537 25.442C40.7502 25.5453 37.9553 27.9552 37.7483 28.1962C38.1278 27.9208 39.8531 26.7158 40.5432 26.1649C38.9904 27.9208 33.2626 32.9816 29.9502 33.5324C28.1214 33.8079 26.9828 32.8095 26.7067 31.7078C26.3272 30.0897 26.9483 28.3339 27.6384 26.7502C27.6729 26.5781 27.7764 26.4748 27.7764 26.4404C27.7764 26.3371 27.8799 26.3027 27.8799 26.3027C27.8799 26.3027 27.9834 26.1649 28.0524 25.924C28.1214 25.683 28.294 25.4764 28.294 25.4764C29.1221 24.3747 29.3981 24.3747 29.9847 24.1337C30.0882 24.0993 30.2262 24.0993 30.2952 24.0993H30.3642V24.1337ZM27.0863 30.9848C27.0863 29.229 29.6396 24.3059 28.777 25.8207C28.0524 26.7846 26.7412 30.0208 27.0863 30.9848ZM33.5732 18.6253C34.0908 18.8663 35.4019 20.5533 31.8825 21.9304C30.3297 22.5156 31.4339 20.8287 31.3649 20.1746C31.3304 19.2106 32.3655 18.522 33.1591 18.522C33.2971 18.5565 33.4697 18.5909 33.5732 18.6253ZM33.6422 31.3635C33.5042 31.4668 34.1598 31.1914 36.023 29.711L37.2652 28.6437C37.0582 28.8159 33.7802 31.2602 33.6422 31.3635ZM40.5432 26.1305C40.9572 25.8207 40.8192 25.8895 40.5086 26.1649L40.5432 26.1305Z" fill="#0D2F3F"/>
<path d="M50.17 21.9648C50.9981 22.7911 48.2722 23.6517 48.2722 23.6517C47.6166 23.6862 47.6166 22.8255 47.8927 22.3779C48.1342 21.9992 47.4786 21.6549 44.4422 23.3075C41.5438 24.8223 40.1636 26.4748 40.4051 27.3011C40.8192 28.7814 43.9246 27.8863 46.9265 29.229C46.961 29.2634 47.099 29.3323 47.1681 29.3667C48.1342 28.6782 52.3093 26.2682 53.8275 25.6485C53.5859 25.8895 53.3099 26.0961 53.0339 26.2338C52.2058 26.7846 51.4121 26.9568 50.9636 27.4388C52.7233 26.5092 54.4831 25.5108 54.7246 25.3731C55.3802 25.0977 54.1725 26.0961 53.0684 26.6469C53.2409 26.6125 53.3444 26.5092 53.3789 26.5092C53.4824 26.6814 48.6518 29.4356 47.9272 30.0897C49.0313 31.3291 50.5495 36.3555 45.2703 40.6245C44.2006 41.4852 40.5086 43.4476 37.8518 42.8967C35.1949 42.3459 34.8843 40.2458 36.23 38.0769C37.0236 36.8719 38.3003 35.5292 39.8875 34.0833C46.823 28.9192 40.5431 34.0489 43.062 32.0176C42.0958 32.8783 41.5783 32.9472 39.5425 34.9095C39.577 34.9095 42.855 32.3963 43.8211 31.7078C44.2351 31.4324 44.6492 31.1569 45.1668 30.8471C45.6153 30.5372 46.2364 30.1585 46.2364 30.1241C46.2364 30.0897 46.1329 30.0208 46.0984 30.0208C45.7189 30.1585 42.924 31.8455 45.9604 29.9176C45.8569 29.8831 45.7189 29.7798 45.6498 29.7454C43.8901 28.747 40.1291 29.0224 38.6799 27.5421C36.2645 24.9256 41.7508 21.6205 43.7176 20.8631C44.3042 20.6221 45.3393 20.4844 46.2709 20.4844C47.9272 20.5188 49.6869 20.8287 50.17 21.9648ZM39.577 36.5276C37.7482 38.2146 35.8505 41.6573 38.1968 41.6918C39.0249 41.6918 40.7502 41.2442 41.5783 40.7622C44.5457 39.0753 49.1003 33.4292 46.754 30.7438C44.5457 32.4996 41.8198 34.462 39.577 36.5276ZM37.9208 36.6653C38.0933 36.6309 39.1284 35.3227 39.1284 35.3227C39.1284 35.3227 37.7827 36.6653 37.9208 36.6653ZM38.6109 37.0785C38.3348 37.4916 39.3355 36.3555 40.4396 35.3915C41.4058 34.5653 42.6479 33.7046 43.7866 32.775C43.4415 32.8439 39.1974 36.0801 38.6109 37.0785ZM38.9904 41.9328C38.8869 42.1738 40.4741 42.036 41.1642 41.6229L41.4403 41.4852C41.3712 41.5196 39.1629 42.1738 38.9904 41.9328ZM40.9227 24.3059C40.1291 25.0288 40.3361 25.1666 40.6121 24.8567C40.8882 24.4436 43.407 22.6533 43.407 22.6533C43.476 22.5845 42.0613 23.3075 40.9227 24.3059ZM47.5131 35.2882C47.4786 35.3227 47.4096 35.426 47.3751 35.4604C47.3406 35.5637 47.4096 35.4604 47.5131 35.3227C46.547 37.0096 45.4773 38.6621 44.8562 38.7999C44.8217 39.213 43.9936 39.7638 43.3035 40.177C43.8556 40.0048 42.924 40.6245 43.476 40.4524C43.7866 40.4524 42.0613 41.4508 41.0952 41.8639C41.2677 41.7606 42.0958 41.5885 42.7514 41.0721C43.3035 40.6589 43.545 40.6589 43.9591 40.3491C43.3035 40.5212 44.0971 40.0392 44.2006 39.9015C44.8907 39.1786 45.7534 38.5244 46.2364 37.5605C46.3744 37.285 46.754 36.9063 46.892 36.6998C47.4786 35.7702 47.7891 35.0817 47.5131 35.2882C47.6856 34.9784 48.0307 34.3243 47.7546 33.9456C47.7891 34.3243 47.6856 34.8063 47.5131 35.2882ZM45.2703 31.0881C45.5463 30.9504 45.5118 31.0537 45.2358 31.2258C45.0978 31.3291 44.9942 31.3635 44.9942 31.3635H44.9597C44.9252 31.3635 44.6837 31.5356 44.4422 31.6389C44.2006 31.7766 44.0626 31.8799 44.0626 31.8799C44.0971 31.8799 44.1661 31.9143 44.0626 31.9832C44.0281 31.9832 43.9246 32.0176 43.8211 32.0865C43.545 32.1898 43.269 32.6029 42.8895 32.775C42.6479 32.8095 41.7508 33.6357 41.3712 33.9111C40.9572 34.221 41.0607 34.221 41.3367 34.0489C41.5093 33.9111 41.6128 33.9111 41.5093 33.9456C41.4058 33.98 41.4748 33.98 41.6128 33.9111C43.0275 33.0505 41.1987 34.0489 42.7169 33.0505C42.7169 33.0505 42.7514 33.0505 42.7514 33.016C42.7514 32.9816 42.993 32.775 43.1655 32.6373C43.4415 32.4652 43.476 32.4652 43.3035 32.6029C43.131 32.7406 43.1655 32.775 43.338 32.6373C43.8556 32.2586 43.3035 32.6373 42.8204 33.016C42.6479 33.1537 43.9591 32.2931 44.9252 31.6045L44.8907 31.6389L45.0288 31.5012C45.8569 30.9504 46.3054 30.5717 45.2703 31.3291C45.4083 31.1914 45.6843 31.0192 45.9259 30.8815C46.0984 30.7782 46.478 30.4684 46.4435 30.4684V30.434C46.3744 30.3651 45.5808 30.8471 45.2703 31.0881ZM42.7859 40.6245C42.6824 40.6589 42.3719 40.9344 42.3374 40.9344C42.0268 41.1754 41.9233 41.2098 41.6473 41.3475C42.0958 41.2098 43.131 40.6245 42.855 40.6245H42.7859ZM45.9949 22.0336C43.4415 22.9976 40.8537 24.6846 42.0613 24.3059C41.9578 24.3403 43.062 23.6173 43.8901 23.1009C44.6147 22.6533 46.823 21.8615 46.823 21.8615C46.8575 21.8615 46.8575 21.8271 46.823 21.8271C46.754 21.8271 46.3399 21.8959 45.9949 22.0336ZM45.0288 31.0537C44.9252 31.0537 44.7527 31.1914 44.5802 31.3291C44.4422 31.4324 44.3042 31.5701 44.2697 31.6045C44.2351 31.6389 44.1316 31.7078 43.9936 31.7422C43.9591 31.7422 43.8901 31.7766 43.8901 31.7766C43.7866 31.8111 43.6141 32.0521 43.8556 31.9143C43.9591 31.8799 43.9936 31.8799 43.9591 31.9143C43.9246 31.9488 43.9246 31.9143 43.9936 31.8799L44.0971 31.7766C44.2351 31.6389 44.3732 31.6045 44.3732 31.6045C44.3732 31.6045 44.5112 31.5701 44.6147 31.5012C44.7182 31.4668 44.7182 31.3979 44.6492 31.3979C44.3387 31.5012 45.6498 30.8471 45.5808 30.8471C45.5463 30.8471 45.3738 30.9159 45.0288 31.0537ZM44.3387 31.9143C44.3042 31.9488 44.2006 32.0176 44.1661 32.0521C44.0626 32.0865 43.8901 32.2242 43.8556 32.2931L43.8211 32.3275C43.7866 32.3619 43.7176 32.3619 43.7866 32.3275C43.8556 32.2931 44.0281 32.1553 44.1661 32.0521C44.2006 32.0521 44.2697 31.9488 44.2697 31.9488C44.3042 31.9144 44.4077 31.8455 44.4422 31.8455C44.4767 31.8455 44.5457 31.8111 44.5457 31.8111C44.5457 31.8111 44.4422 31.8799 44.3387 31.9143ZM47.03 36.9063C46.7195 37.4916 46.3054 38.0425 45.7534 38.6966C45.0633 39.4884 43.9591 40.3491 44.2006 40.2458C45.2703 39.7983 47.9617 36.2178 47.8581 35.4948C47.8236 35.4948 47.4786 36.1834 47.03 36.9063ZM44.3387 31.2602C44.2351 31.2947 44.2006 31.3979 44.2006 31.3979L44.3732 31.2947L44.5112 31.1569L44.3387 31.2602ZM45.3048 31.2602L45.2703 31.2947C45.1323 31.3979 45.0288 31.4668 44.9942 31.5356C45.0288 31.5356 45.0978 31.4324 45.0978 31.4324C45.1323 31.3979 45.2358 31.3291 45.3048 31.2602ZM47.4096 29.5388C47.4096 29.6421 49.4799 28.265 50.3425 27.7486C49.7559 27.9896 47.2371 29.5044 47.4096 29.5388ZM47.7546 29.8487C48.5827 29.4356 50.446 28.0929 51.6882 27.4388C52.1022 27.1633 52.2403 26.9912 52.2403 26.9912C52.1022 26.9568 48.3067 29.5733 47.7546 29.8487Z" fill="#0D2F3F"/>
<path d="M70.4933 1.41154C73.1157 6.57568 60.6249 24.1337 54.1725 27.783C53.5859 28.6093 52.2403 34.9784 53.4479 34.1177C54.3105 33.4292 56.7949 30.7438 58.5546 29.4011C60.2454 28.1617 63.2473 28.7126 63.0403 30.5372V30.6405C63.0403 31.7422 62.6607 33.5669 63.3508 33.6013C64.3514 33.6357 65.2831 32.775 69.2166 30.2962C69.2511 30.2962 69.3546 30.2618 69.3546 30.193C69.3546 30.1241 69.4926 29.952 69.6652 29.8143C69.9067 29.6421 70.1827 29.4011 70.1827 29.4356C70.1827 29.4356 70.1482 29.5733 70.0792 29.6077C70.0447 29.6421 69.9067 29.7454 69.7687 29.8831C69.7342 29.9175 69.6307 30.0553 69.5272 30.1241C69.2166 30.3995 69.0786 30.5028 68.9751 30.5028C68.9406 30.5028 68.8371 30.5372 68.8026 30.6405C68.699 30.7782 68.6645 30.7782 68.8371 30.7438C68.9751 30.7094 68.9751 30.7094 68.8371 30.8471C68.7335 30.9504 68.8716 30.8471 69.1131 30.7094C69.4236 30.4684 69.4236 30.5372 68.5955 31.1569C68.0089 31.6734 67.3534 32.2242 69.1476 30.8471C69.4581 30.6061 69.8032 30.2962 69.9412 30.193C70.3898 29.8143 70.3898 29.8831 69.9412 30.193C69.8377 30.2962 69.6997 30.3651 69.5617 30.5028C69.0096 30.9504 68.492 31.4324 68.492 31.4668C68.492 31.5012 68.768 31.2946 70.0102 30.2618C71.0799 29.3323 71.977 28.6437 73.0466 27.7486L73.1502 27.7142C73.3227 27.5765 73.6677 27.3011 73.8748 27.1289C74.1508 26.8879 74.2888 26.7502 74.4268 26.6125H74.5304V26.5781H74.5649L74.5994 26.5436L74.7029 26.5092C74.8409 26.4059 74.5994 26.5436 74.7374 26.4748L74.8409 26.3715L74.9444 26.3371L75.0479 26.2338H75.0824V26.1994H75.1169H75.1514H75.1859C75.1859 26.1994 75.1514 26.1649 75.1859 26.1649H75.2204H75.255L75.2895 26.1305V26.0961H75.324H75.3585V26.0617H75.393L75.4275 26.0272L75.462 25.9928H75.4965V25.9584H75.6H75.5655L75.531 25.9928V26.0272H75.4965L75.462 26.0617H75.4275V26.0961H75.393L75.3585 26.1305L75.324 26.1649H75.2895L75.255 26.1994H75.2204V26.2338H75.1859V26.2682H75.1514V26.3027H75.1169L75.0824 26.3371H75.0479L75.0134 26.3715H74.9789V26.4059H74.8754L74.8409 26.4404L74.8064 26.4748H74.7719V26.5092H74.7374L74.7029 26.5436L74.6684 26.5781H74.5304V26.6814C74.4268 26.7158 74.2888 26.9223 74.1163 27.0601C73.8748 27.2322 73.5297 27.5765 73.2537 27.783C73.1157 27.9207 72.8741 28.024 72.8051 28.0929C72.3566 28.4716 72.253 28.5404 72.3911 28.506C72.5291 28.4716 72.2185 28.747 71.5974 29.1946C71.0454 29.6077 70.4933 30.0553 70.3898 30.193C70.2518 30.3307 70.7003 30.0553 71.77 29.1257C72.3566 28.6093 72.8741 28.1962 73.2882 27.8863C74.0128 27.3011 74.4958 26.8191 74.6339 26.6469H74.6684V26.6125H74.7029C74.6684 26.6469 74.8064 26.5092 74.7374 26.5781L74.7719 26.5436L74.8064 26.5092H74.8409V26.4748H74.8754H74.9099V26.5092H74.9444V26.4748H74.9789L75.0134 26.4404H75.0479V26.4059H75.0824V26.3715H75.1169L75.1514 26.3371H75.1859C75.1514 26.3371 75.0479 26.4404 75.0479 26.4404C75.0134 26.4748 75.0134 26.4748 74.9444 26.5781L74.9099 26.6125L74.8064 26.6469C74.7719 26.6814 74.6684 26.8191 74.6684 26.8879V26.9223C74.5303 27.0256 74.3578 27.1633 74.3578 27.1978C74.3578 27.2322 74.2543 27.3011 74.2198 27.3011C74.1163 27.3011 74.0818 27.3355 73.8403 27.5765C73.7022 27.7486 73.4262 28.024 73.2537 28.1273L73.2192 28.1617C72.9431 28.3339 72.9086 28.4027 73.1157 28.4027C73.2192 28.4027 73.2192 28.4372 73.0812 28.5404C72.9776 28.5749 72.9431 28.6437 72.9776 28.6437C73.0121 28.6437 72.9431 28.7814 72.7016 28.9536C72.4256 29.1946 71.5629 29.8831 70.5278 30.7782L70.2518 31.0192C69.3891 31.8111 68.7335 32.293 68.63 32.3963C68.5265 32.4308 68.5265 32.4996 68.5955 32.4996C68.63 32.4996 69.4236 31.9143 70.3553 31.1569C71.0454 30.6061 71.839 30.0208 72.4601 29.47C72.9776 29.0569 73.3917 28.747 73.3917 28.747C73.3917 28.747 73.1502 28.988 72.8051 29.2634C72.3911 29.5733 72.2185 29.711 72.2875 29.711C72.3911 29.711 72.7016 29.47 72.9776 29.2634C73.2537 29.0569 73.4952 28.8503 73.4952 28.8847C73.4607 29.0224 72.5291 29.8143 72.3911 29.8143C72.2875 29.8143 72.253 29.9175 72.253 29.952C72.253 30.0553 72.253 30.0897 72.115 30.0897C71.977 30.0897 71.977 30.1241 72.0115 30.1241C72.046 30.1241 71.977 30.2618 71.5629 30.5717C71.1834 30.8815 71.0454 30.9504 71.1489 30.8471C71.2524 30.7438 71.0454 30.8471 70.6313 31.1569C70.5968 31.1914 70.4933 31.2602 70.4588 31.2946C70.1827 31.5356 70.1482 31.5701 70.2863 31.5356C70.4243 31.4324 70.3898 31.5356 70.0102 31.8455C69.8722 31.9832 69.6307 32.1209 69.4926 32.2586C69.6307 32.1553 69.8722 32.0176 70.0102 31.9488C70.1137 31.9143 70.2863 31.7078 70.5623 31.5012C71.3904 30.8471 72.5981 29.8831 73.7367 28.9536C73.8748 28.8159 74.5649 28.2995 74.7029 28.1617L74.6684 28.1962L74.6339 28.2306L74.5994 28.265L74.4958 28.3683L74.3923 28.4716C74.2543 28.6437 74.4268 28.4372 74.2543 28.6093C74.2198 28.6437 74.2198 28.6437 74.2198 28.7126L74.0473 28.8847C74.0128 28.9191 73.8748 28.988 73.8057 29.0224L73.7712 29.0569C73.7367 29.0913 73.6332 29.1601 73.5987 29.1946C73.4952 29.2979 73.4607 29.4356 73.4607 29.5044C73.3572 29.6077 73.2192 29.6766 73.1502 29.7798C73.1157 29.8143 72.9776 29.9175 72.9086 29.952C72.8741 29.9864 72.7706 30.0553 72.7361 30.0897C72.7016 30.1241 72.6326 30.193 72.6326 30.2274C72.046 30.7438 71.3559 31.2946 70.8038 31.7422C70.5278 31.9832 70.2173 32.2586 69.9757 32.4308L69.9412 32.4652L69.8377 32.4996L69.8032 32.534V32.4996H69.8377L69.7342 32.534L69.6997 32.5685L69.5962 32.6029C69.5617 32.6373 69.4926 32.7406 69.4926 32.775C67.0773 34.703 64.731 35.9424 63.0058 35.5637C60.6594 35.0473 60.6594 33.1882 60.7629 30.7094C59.5553 30.3995 55.4837 36.1145 53.8275 36.5276C52.3093 36.8031 50.239 34.8407 50.584 32.0865C51.6537 23.5829 55.2767 13.3923 63.0748 3.68376C64.2824 2.4788 66.9393 -0.0344131 68.63 1.44331e-05C69.3546 1.44331e-05 70.0792 0.585283 70.4933 1.41154ZM51.2396 32.0865C51.2396 33.0505 51.3431 33.498 51.4121 33.7734C51.4121 34.1521 51.5157 34.3243 51.5502 34.1866C51.5502 34.0833 51.5157 34.0144 51.4121 33.7734C51.3776 32.4996 51.5157 28.9536 51.9297 28.9191H51.8952C51.4811 28.988 51.2396 32.0865 51.2396 32.0865ZM52.3438 28.8159C52.1712 28.988 51.7572 31.7422 51.7572 32.4308C51.7917 33.9111 52.3438 34.6685 51.9987 33.7734C51.7572 32.2586 52.5163 28.6782 52.4473 28.6782C52.4128 28.6782 52.3438 28.7126 52.3438 28.8159ZM52.2403 26.6125C52.2403 26.6125 52.8268 26.3715 52.8268 25.7862C52.8268 25.201 55.4492 17.3171 55.4492 17.3171C54.138 20.8287 53.1719 23.755 52.2403 26.6125ZM52.5163 31.3979C52.4128 32.3963 53.2064 28.0929 53.2064 28.0929C53.2064 28.0929 52.6198 30.3995 52.5163 31.3979ZM57.0019 15.1481C54.9316 19.1417 53.4824 24.8911 53.3789 25.3731C53.2064 26.3027 53.4824 25.9584 53.7585 24.5469C53.793 23.5485 56.1393 17.3515 57.83 14.3219C58.3821 13.0481 58.7617 12.2218 58.7617 12.2218C58.7617 12.2218 57.554 13.9087 57.0019 15.1481ZM55.7252 19.6926C54.4486 23.9616 54.6556 22.4812 54.207 25.3387C54.7246 23.5485 57.416 16.3531 57.3815 16.2842C57.3815 16.2498 55.9323 19.1762 55.7252 19.6926ZM68.216 1.41154C64.6275 3.37391 56.2428 17.9023 54.9661 24.7878C57.623 23.4107 62.3847 17.3859 65.6281 11.7054C67.3188 8.77904 68.6645 5.8527 69.0786 3.82147C69.1821 3.27063 69.5272 1.30826 68.699 1.30826C68.5955 1.27383 68.3885 1.34269 68.216 1.41154ZM55.8288 24.719C55.2767 26.1994 61.0735 20.1746 63.5233 16.5597C64.1099 15.6301 64.6275 14.6317 64.9035 14.012C63.4888 16.4908 57.692 23.9616 55.8288 24.719ZM57.5195 16.1121C57.9335 15.3891 58.7272 14.2874 58.8652 13.4956C62.5227 6.43797 64.4204 5.33628 65.5936 2.99521C60.3834 9.32988 58.6581 13.0825 57.5195 16.1121ZM65.4211 13.1858C65.0415 13.7022 66.0077 13.0825 67.6294 9.81186C68.147 8.74461 68.8716 7.12652 69.6652 4.44117C68.5955 7.6085 66.9738 10.9135 65.4211 13.1858ZM65.6971 33.8079C65.4211 33.98 65.3866 34.0489 65.4556 33.9456C65.4901 33.9111 65.5936 33.8079 65.6971 33.7734C65.8006 33.739 65.9387 33.6357 65.9732 33.6013L66.0077 33.5669C66.0077 33.5324 65.9042 33.6701 65.6971 33.8079ZM66.9738 32.7406C66.9393 32.7406 66.8703 32.775 66.8358 32.8439C66.8013 32.8783 66.6633 32.9472 66.5942 32.9816C66.4907 33.0849 66.4217 33.1193 66.3527 33.1537C66.2492 33.257 66.3872 33.1537 66.7668 32.8783H66.8013C67.0773 32.6373 67.2498 32.5685 67.2498 32.5685C67.2498 32.5685 67.1463 32.6373 66.9738 32.7406ZM67.6294 32.4308C67.5949 32.4652 67.4914 32.5685 67.3879 32.6029C67.2843 32.6373 67.2153 32.7406 67.1463 32.775C67.0428 32.8783 67.1463 32.775 67.4224 32.6029C67.5949 32.4652 67.6639 32.3619 67.6639 32.3619C67.6639 32.3619 67.6639 32.4308 67.6294 32.4308ZM67.4914 32.1553C67.3879 32.1898 67.3534 32.2586 67.4569 32.1553L67.5604 32.0521H67.5949L67.4914 32.1553ZM68.1125 31.9143C68.078 31.9488 67.9744 31.9488 67.9744 31.9488C67.9744 31.9488 67.9744 31.8455 68.0089 31.8455L68.0434 31.8111H68.1815L68.1125 31.9143ZM69.2856 31.6045C68.7335 32.0176 68.354 32.3275 68.354 32.3275C68.3885 32.3275 69.1476 31.7766 69.6997 31.3291C70.0102 31.0537 70.2863 30.8815 70.2863 30.8815C70.2173 30.8471 69.7687 31.1914 69.2856 31.6045ZM69.2856 31.3291C69.1821 31.3635 69.1476 31.4324 69.1476 31.3635L69.1821 31.3291L69.3201 31.2946V31.2602C69.3201 31.2258 69.3201 31.2602 69.2856 31.3291ZM69.9067 30.0897L69.8032 30.1241L69.7687 30.2274C69.7687 30.2618 69.8032 30.2274 69.8722 30.193L69.9067 30.1585C69.9412 30.1585 69.9412 30.1241 69.9412 30.1241H69.9067V30.0897ZM70.0792 30.8127C70.0447 30.8471 69.9412 30.9504 69.9412 30.9159L70.0447 30.8127L70.1482 30.7782L70.0792 30.8127ZM70.0102 32.4308V32.4652L70.0447 32.4308H70.0102ZM70.5623 29.1601L70.4588 29.1946L70.4243 29.2979L70.5623 29.1601C70.6658 29.1257 70.7003 29.0569 70.7003 29.0569C70.6313 29.1257 70.5968 29.1257 70.5623 29.1601ZM71.1144 29.229C70.9419 29.2634 70.8038 29.3667 70.7348 29.4011H70.8383C70.9419 29.4011 70.9419 29.4011 70.8728 29.5044C70.8383 29.5388 70.9764 29.5044 71.1144 29.3667C71.2179 29.2634 71.3559 29.229 71.4249 29.1257C71.3214 29.1257 71.1834 29.229 71.1144 29.229ZM72.7706 27.3699C72.6326 27.5076 72.4601 27.7486 72.3565 27.783C72.253 27.8175 72.0805 28.024 71.977 28.0929C71.839 28.265 71.8735 28.265 72.115 28.0585C72.2875 27.8863 72.4256 27.783 72.4256 27.8175C72.4256 27.8175 72.115 28.1273 71.7355 28.4716C71.3559 28.7814 70.9073 29.0569 70.8728 29.0569C70.8383 29.0569 70.9764 28.9536 71.1489 28.8159C71.3214 28.6782 71.4249 28.506 71.3904 28.506C71.3559 28.506 71.4939 28.3339 71.839 28.0585H71.9425L71.977 28.024C72.1495 27.9207 72.2875 27.783 72.3911 27.6453C72.6671 27.4732 72.8396 27.3355 72.8396 27.3355C72.8396 27.3355 72.8051 27.3355 72.7706 27.3699ZM72.8051 28.5404C72.7016 28.5749 72.7016 28.7126 72.7016 28.7126C72.7016 28.7126 72.3911 29.0913 71.77 29.5388C71.2179 29.952 70.8383 30.3307 70.8383 30.3307C70.8728 30.3307 71.4939 29.8831 71.977 29.47C72.1495 29.3323 72.2875 29.1946 72.4256 29.0913C72.7361 28.8159 72.9431 28.6437 72.9431 28.5404C72.9431 28.506 72.9086 28.506 72.9086 28.506C72.9086 28.506 72.8396 28.4716 72.8051 28.5404ZM71.7355 30.3651C71.5974 30.4684 71.5629 30.5028 71.5974 30.4684L71.701 30.3651C71.7355 30.3307 71.8045 30.2618 71.839 30.2618H71.8735C71.8735 30.2618 71.839 30.2962 71.7355 30.3651ZM72.2185 28.265C72.184 28.265 72.0805 28.2995 72.046 28.3683C72.0115 28.4027 71.908 28.4716 71.908 28.506C71.8735 28.5404 71.9425 28.5404 72.0805 28.4027C72.2185 28.2995 72.253 28.2306 72.253 28.2306L72.2185 28.265ZM72.7706 30.2274C72.7361 30.2618 72.5981 30.3307 72.5291 30.3651C72.4946 30.3995 72.3911 30.4684 72.3565 30.5028C72.322 30.5372 72.3566 30.6061 72.3911 30.5372L72.4256 30.434H72.4601L72.4946 30.3995L72.5291 30.3651C72.6326 30.2962 72.7016 30.2274 72.7706 30.2274ZM73.9093 26.9568C73.8748 26.9912 73.7367 27.0945 73.6332 27.1289C73.5297 27.1633 73.4952 27.2322 73.4607 27.2666C73.3572 27.3699 73.4952 27.3011 73.7367 27.1289C73.8403 27.0256 73.9093 26.9912 73.9783 26.9568H73.9093ZM74.5994 27.3699C74.1508 27.6798 74.0473 27.8175 74.1508 27.8175C74.2543 27.8175 74.1508 27.8519 73.9093 28.0585C73.5987 28.2995 73.5987 28.2995 73.7712 28.0929C73.8058 28.0585 73.9093 27.9207 73.9438 27.8519C73.8403 27.8863 73.7712 27.9896 73.6677 28.024C73.4262 28.1617 73.5297 28.0585 73.8057 27.8863C74.0818 27.7142 74.4613 27.3699 74.7719 27.1978C74.8754 27.1633 74.9444 27.0945 75.0134 27.0601L74.5994 27.3699ZM74.4613 27.783L74.4268 27.8175L74.3233 27.9207C74.0128 28.1962 73.8748 28.3683 74.0128 28.3339C74.0473 28.3339 74.2543 28.1962 74.3923 28.0929C74.5304 27.9552 74.5649 27.9552 74.4958 27.9552C74.3923 27.9552 74.3923 27.9552 74.5994 27.783L74.7719 27.6109L74.4613 27.783ZM74.5304 28.0585C74.4958 28.0585 74.4268 28.0929 74.3923 28.1617C74.3578 28.2306 74.2888 28.1962 74.2888 28.265C74.2543 28.2995 74.2888 28.2995 74.4268 28.2306L74.5649 28.0929H74.5304V28.0585ZM75.2204 27.0601C75.0479 27.1978 74.9099 27.3355 74.9099 27.3699C74.9099 27.4043 75.0134 27.3355 75.1859 27.1978C75.3585 27.0601 75.4965 26.9568 75.4965 26.9223V26.8879C75.462 26.8879 75.3585 26.9568 75.2204 27.0601ZM75.1859 27.5076C75.1859 27.5076 75.1514 27.542 75.0824 27.542C75.0134 27.542 74.9789 27.6453 74.9789 27.6453C74.9444 27.6798 74.9789 27.6798 75.0824 27.6109C75.1859 27.5765 75.2204 27.4732 75.2204 27.4732L75.1859 27.5076ZM75.8415 26.9223C75.807 26.9223 75.7035 27.0256 75.669 27.0601C75.6345 27.0945 75.531 27.0945 75.531 27.1633C75.4965 27.1978 75.6345 27.1978 75.7725 27.0601C75.9105 26.9568 75.9105 26.9223 75.9105 26.9223H75.8415ZM76.1521 26.5092L76.1176 26.5436C76.1176 26.5436 76.0831 26.6469 76.0141 26.6469C76.0141 26.6814 76.0486 26.6469 76.1521 26.6125C76.1866 26.5781 76.1866 26.5092 76.1866 26.5092H76.1521Z" fill="#0D2F3F"/>
<path d="M85.7789 26.6813C85.8824 26.6469 86.7795 26.1305 86.5035 26.4059C85.9859 26.9568 84.6057 27.9552 84.7093 27.9207C84.9508 27.8175 86.9176 26.5781 86.9521 26.6813C86.9866 26.7846 85.5719 27.9207 83.8811 28.8847C83.4326 29.1601 82.2249 29.7454 80.0856 30.2962C79.3955 31.5356 78.2914 33.3947 76.4971 34.703C75.393 35.3915 74.1508 35.3571 72.7706 33.8423C69.9412 30.7782 75.6 24.5813 75.7035 24.5468C76.4971 23.996 76.9457 24.9255 78.0843 24.5468C78.4639 24.3747 79.637 24.6845 80.4652 25.7862C80.9827 26.4748 80.7067 28.4716 80.6377 28.5749C81.6038 28.2994 82.1904 27.8863 83.7086 27.301C84.1572 27.1289 85.1923 26.6469 85.3648 26.5092C85.9169 26.7502 81.9834 28.2994 82.2594 28.1273C81.7073 28.6781 83.6051 27.9896 85.7789 26.6813ZM74.5648 33.6013C76.0831 33.7046 77.8773 30.1585 77.9118 30.1241C76.7041 29.8831 76.2211 29.0224 75.876 28.5749C75.876 28.5749 72.8396 33.4636 74.5648 33.6013ZM78.4984 26.1994H78.4639C77.3942 26.3371 77.0492 28.9536 77.9463 29.1257C78.6709 29.0224 79.085 26.1994 78.5329 26.1994H78.4984ZM82.57 28.5404C82.4319 28.7126 84.9163 27.7142 85.3303 27.1633C84.5022 27.6453 83.191 28.2994 82.57 28.5404Z" fill="#0D2F3F"/>
<path d="M90.5751 21.6205C91.1272 23.9616 87.1936 25.8207 88.0562 27.3011C89.5745 29.9176 92.3693 30.6405 91.9553 33.3947C90.5406 37.8015 89.1604 40.4868 90.1955 41.0721C91.6793 41.2442 94.6812 38.6621 97.5451 35.5637C100.236 32.6373 104.791 27.783 108 24.5813C106.482 26.6469 102.755 29.9864 100.996 32.4996C102.134 31.2258 107.62 25.5453 107.62 25.5453L102.79 31.5012C102.79 31.5012 102.479 31.9488 102.514 31.9488C104.17 29.7454 105.343 29.1601 106.654 27.2322C105.826 28.8503 103.963 30.9504 102.238 33.1882C99.5463 36.7686 95.4403 41.0032 92.3694 42.3459C90.0575 43.3443 87.6077 41.0721 87.9527 38.4556C88.3323 35.4948 91.0237 32.6029 88.3323 29.47C86.4 27.3011 83.4671 24.8567 85.3994 21.8271C86.0895 20.8287 87.3316 19.9336 88.4358 19.9336C89.2294 19.968 90.0575 20.4844 90.5751 21.6205ZM89.0569 36.6653C88.3668 38.4212 88.5393 39.6261 88.9189 40.0048C88.8844 39.8671 88.6083 38.3179 89.2294 36.7686C90.023 34.8063 90.1955 34.0833 90.3336 33.1537C90.2991 33.1537 90.2991 32.4996 90.1955 32.4996C90.023 34.2554 89.6435 35.1505 89.0569 36.6653ZM93.5425 40.4868C94.0601 40.2114 94.2671 40.177 96.6134 38.0769C97.5796 37.4228 101.996 32.3963 101.651 32.4308C100.478 33.8767 96.4064 38.3867 93.5425 40.4868Z" fill="#0D2F3F"/>
</svg>
