<svg width="16" height="15" viewBox="0 0 16 15" fill="none" xmlns="http://www.w3.org/2000/svg">
<path d="M14.3848 8.40643C15.2637 8.40643 15.7031 8.84588 15.7031 9.72479V13.299C15.7031 14.1779 15.2637 14.6174 14.3848 14.6174H10.9863C10.1074 14.6174 9.66797 14.1779 9.66797 13.299V9.72479C9.66797 7.67401 9.88281 5.8869 10.3125 4.36346C10.7617 2.82049 11.6309 1.47283 12.9199 0.32049C13.3496 -0.0506037 13.7109 -0.0994318 14.0039 0.174006L15.3223 1.40447C15.6152 1.67791 15.5469 2.00994 15.1172 2.40057C14.4531 2.98651 13.9062 3.83611 13.4766 4.9494C13.0664 6.04315 12.8613 7.19549 12.8613 8.40643H14.3848ZM4.7168 8.40643C5.5957 8.40643 6.03516 8.84588 6.03516 9.72479V13.299C6.03516 14.1779 5.5957 14.6174 4.7168 14.6174H1.31836C0.439453 14.6174 0 14.1779 0 13.299V9.72479C0 7.67401 0.214844 5.8869 0.644531 4.36346C1.09375 2.82049 1.96289 1.47283 3.25195 0.32049C3.68164 -0.0506037 4.04297 -0.0994318 4.33594 0.174006L5.6543 1.40447C5.94727 1.67791 5.87891 2.00994 5.44922 2.40057C4.78516 2.98651 4.23828 3.83611 3.80859 4.9494C3.39844 6.04315 3.19336 7.19549 3.19336 8.40643H4.7168Z" fill="#0d303f"/>
</svg>
