<svg width="1265" height="620" viewBox="0 0 1265 620" fill="none" xmlns="http://www.w3.org/2000/svg">
<g id="svg-shapes">
<rect id="rect4" x="206" y="471.568" width="100" height="100" transform="rotate(-11.2847 206 471.568)" fill="#9F2C2C"/>
<rect id="rect3" x="399" width="100" height="100" fill="#9F2C2C"/>
<rect id="rect2" x="990.55" y="230.265" width="100" height="100" transform="rotate(21.2751 990.55 230.265)" fill="#9F2C2C"/>
<rect id="rect1" x="332" y="340.255" width="137.479" height="137.479" transform="rotate(-40.4832 332 340.255)" fill="#9F2C2C"/>
<circle id="circle4" cx="124.5" cy="335.5" r="124.5" fill="#9F2C2C"/>
<circle id="circle3" cx="852" cy="100" r="50" fill="#9F2C2C"/>
<circle id="circle2" cx="1162" cy="465" r="72" fill="#9F2C2C"/>
<circle id="circle1" cx="576" cy="570" r="50" fill="#9F2C2C"/>
<path id="traingle4" d="M287.565 72.0609L302.708 186.534L196 142.412L287.565 72.0609Z" fill="#9F2C2C"/>
<path id="triangle3" d="M1158.55 35.1531L1264.25 81.6269L1171.15 149.933L1158.55 35.1531Z" fill="#9F2C2C"/>
<path id="triangle2" d="M863.488 390.899L871.937 529.131L748 467.332L863.488 390.899Z" fill="#9F2C2C"/>
<path id="traingle1" d="M665.55 221.153L771.255 267.627L678.155 335.933L665.55 221.153Z" fill="#9F2C2C"/>
</g>
</svg>
