<svg id="visual" viewBox="0 0 900 600" width="900" height="600" xmlns="http://www.w3.org/2000/svg" xmlns:xlink="http://www.w3.org/1999/xlink" version="1.1"><rect x="0" y="0" width="900" height="600" fill="#002233"></rect><path d="M0 514L21.5 513.7C43 513.3 86 512.7 128.8 502.7C171.7 492.7 214.3 473.3 257.2 463C300 452.7 343 451.3 385.8 463C428.7 474.7 471.3 499.3 514.2 498.7C557 498 600 472 642.8 453.2C685.7 434.3 728.3 422.7 771.2 421.7C814 420.7 857 430.3 878.5 435.2L900 440L900 601L878.5 601C857 601 814 601 771.2 601C728.3 601 685.7 601 642.8 601C600 601 557 601 514.2 601C471.3 601 428.7 601 385.8 601C343 601 300 601 257.2 601C214.3 601 171.7 601 128.8 601C86 601 43 601 21.5 601L0 601Z" fill="#0066FF" stroke-linecap="round" stroke-linejoin="miter"></path></svg>