<svg width="910" height="816" viewBox="0 0 910 816" fill="none" xmlns="http://www.w3.org/2000/svg">
<g clip-path="url(#clip0_108_30)">
<path d="M466.642 0.0590973C466.642 0.0590973 487.918 99.3479 587.204 141.9C686.489 184.453 824.78 328.067 821.234 484.151C817.688 640.235 817.688 787.395 909.882 815.764" stroke="#231F20" stroke-miterlimit="10"/>
<path d="M446.431 0.0590973C446.431 0.0590973 467.706 99.3479 566.992 141.9C666.277 184.453 804.568 328.067 801.022 484.151C797.476 640.235 797.476 787.395 889.67 815.764" stroke="#231F20" stroke-miterlimit="10"/>
<path d="M426.219 0.0590973C426.219 0.0590973 447.494 99.3479 546.78 141.9C646.066 184.453 784.356 328.067 780.81 484.151C777.265 640.235 777.265 787.395 869.458 815.764" stroke="#231F20" stroke-miterlimit="10"/>
<path d="M406.066 0.0590973C406.066 0.0590973 427.342 99.3479 526.628 141.9C625.913 184.453 764.204 328.067 760.658 484.151C757.112 640.235 757.112 787.395 849.306 815.764" stroke="#231F20" stroke-miterlimit="10"/>
<path d="M385.855 0.0590973C385.855 0.0590973 407.13 99.3479 506.416 141.9C605.701 184.453 743.992 328.067 740.446 484.151C736.9 640.176 736.9 787.395 829.094 815.764" stroke="#231F20" stroke-miterlimit="10"/>
<path d="M365.643 0.0590973C365.643 0.0590973 386.918 99.3479 486.204 141.9C585.49 184.453 723.78 328.067 720.234 484.151C716.688 640.235 716.688 787.395 808.882 815.764" stroke="#231F20" stroke-miterlimit="10"/>
<path d="M345.431 0.0590973C345.431 0.0590973 366.707 99.3479 465.992 141.9C565.278 184.453 703.569 328.067 700.023 484.151C696.477 640.235 696.477 787.395 788.671 815.764" stroke="#231F20" stroke-miterlimit="10"/>
<path d="M325.279 0.0590973C325.279 0.0590973 346.554 99.3479 445.84 141.9C545.125 184.453 683.416 328.067 679.87 484.151C676.324 640.235 676.324 787.395 768.518 815.764" stroke="#231F20" stroke-miterlimit="10"/>
<path d="M305.067 0.0590973C305.067 0.0590973 326.342 99.3479 425.628 141.9C524.914 184.453 663.204 328.067 659.658 484.151C656.112 640.235 656.112 787.395 748.306 815.764" stroke="#231F20" stroke-miterlimit="10"/>
<path d="M284.855 0.0590973C284.855 0.0590973 306.131 99.3479 405.416 141.9C504.702 184.453 642.993 328.067 639.447 484.151C635.901 640.176 635.901 787.395 728.095 815.764" stroke="#231F20" stroke-miterlimit="10"/>
<path d="M264.644 0.0590973C264.644 0.0590973 285.919 99.3479 385.205 141.9C484.49 184.453 622.781 328.067 619.235 484.151C615.689 640.235 615.689 787.395 707.883 815.764" stroke="#231F20" stroke-miterlimit="10"/>
<path d="M244.491 0.0590973C244.491 0.0590973 265.766 99.3479 365.052 141.9C464.338 184.453 602.628 328.067 599.082 484.151C595.536 640.176 595.536 787.395 687.73 815.764" stroke="#231F20" stroke-miterlimit="10"/>
<path d="M224.279 0.0590973C224.279 0.0590973 245.555 99.3479 344.84 141.9C444.126 184.453 582.417 328.067 578.871 484.151C575.325 640.176 575.325 787.395 667.519 815.764" stroke="#231F20" stroke-miterlimit="10"/>
<path d="M204.068 0.0590973C204.068 0.0590973 225.343 99.3479 324.629 141.9C423.914 184.453 562.205 328.067 558.659 484.151C555.113 640.235 555.113 787.395 647.307 815.764" stroke="#231F20" stroke-miterlimit="10"/>
<path d="M183.915 0.0590973C183.915 0.0590973 205.19 99.3479 304.476 141.9C403.762 184.453 542.052 328.067 538.506 484.151C534.96 640.235 534.96 787.395 627.154 815.764" stroke="#231F20" stroke-miterlimit="10"/>
<path d="M163.703 0.0590973C163.703 0.0590973 184.979 99.3479 284.264 141.9C383.55 184.453 521.841 328.067 518.295 484.151C514.749 640.235 514.749 787.395 606.942 815.764" stroke="#231F20" stroke-miterlimit="10"/>
<path d="M143.491 0.0590973C143.491 0.0590973 164.767 99.3479 264.053 141.9C363.338 184.453 501.629 328.067 498.083 484.151C494.537 640.235 494.537 787.395 586.731 815.764" stroke="#231F20" stroke-miterlimit="10"/>
<path d="M123.28 0.0590973C123.28 0.0590973 144.555 99.3479 243.841 141.9C343.126 184.453 481.417 328.067 477.871 484.151C474.325 640.176 474.325 787.395 566.519 815.764" stroke="#231F20" stroke-miterlimit="10"/>
<path d="M103.127 0.0590973C103.127 0.0590973 124.403 99.3479 223.688 141.9C322.974 184.453 461.264 328.067 457.719 484.151C454.173 640.235 454.173 787.395 546.366 815.764" stroke="#231F20" stroke-miterlimit="10"/>
<path d="M82.9154 0.0590973C82.9154 0.0590973 104.191 99.3479 203.476 141.9C302.762 184.453 441.053 328.067 437.507 484.151C433.961 640.235 433.961 787.395 526.155 815.764" stroke="#231F20" stroke-miterlimit="10"/>
<path d="M62.7036 0.0590973C62.7036 0.0590973 83.9791 99.3479 183.265 141.9C282.55 184.453 420.841 328.067 417.295 484.151C413.749 640.235 413.749 787.395 505.943 815.764" stroke="#231F20" stroke-miterlimit="10"/>
<path d="M42.4919 0.0590973C42.4919 0.0590973 63.7674 99.3479 163.053 141.9C262.339 184.453 400.629 328.067 397.083 484.151C393.537 640.235 393.537 787.395 485.731 815.764" stroke="#231F20" stroke-miterlimit="10"/>
<path d="M22.3394 0.0590973C22.3394 0.0590973 43.6148 99.3479 142.9 141.9C242.186 184.453 380.477 328.067 376.931 484.151C373.385 640.176 373.385 787.395 465.579 815.764" stroke="#231F20" stroke-miterlimit="10"/>
<path d="M2.12756 0.0590973C2.12756 0.0590973 23.4031 99.3479 122.689 141.9C221.974 184.453 360.265 328.067 356.719 484.151C353.173 640.235 353.173 787.395 445.367 815.764" stroke="#231F20" stroke-miterlimit="10"/>
<path d="M425.214 815.705C421.964 814.7 418.773 813.518 415.759 812.218C333.021 776.876 333.139 634.621 336.566 484.092C340.112 328.067 201.822 184.393 102.536 141.841C48.1654 118.615 17.1977 78.3672 0.295532 46.6303" stroke="#231F20" stroke-miterlimit="10"/>
<path d="M405.003 815.705C401.752 814.7 398.561 813.518 395.547 812.218C312.809 776.876 312.927 634.621 316.355 484.092C319.901 328.067 181.61 184.393 82.3244 141.841C44.915 125.884 18.557 101.83 0.295532 78.0126" stroke="#231F20" stroke-miterlimit="10"/>
<path d="M384.85 815.704C381.6 814.7 378.408 813.518 375.335 812.218C292.597 776.876 292.715 634.621 296.143 484.092C299.689 328.067 161.398 184.393 62.1126 141.841C36.7003 130.967 16.4294 116.369 0.295532 100.648" stroke="#231F20" stroke-miterlimit="10"/>
<path d="M364.638 815.704C361.388 814.7 358.197 813.518 355.183 812.218C272.445 776.876 272.563 634.621 275.99 484.092C279.536 328.067 141.246 184.393 41.96 141.841C26.1807 135.104 12.4107 126.889 0.354614 117.905" stroke="#231F20" stroke-miterlimit="10"/>
<path d="M344.427 815.704C341.176 814.7 337.985 813.518 334.971 812.218C252.233 776.875 252.351 634.621 255.779 484.092C259.325 328.067 121.034 184.393 21.7483 141.841C14.1246 138.591 7.03277 134.985 0.295532 131.144" stroke="#231F20" stroke-miterlimit="10"/>
<path d="M324.215 815.705C320.964 814.7 317.773 813.518 314.759 812.218C232.021 776.876 232.139 634.621 235.567 484.092C239.113 328.067 100.822 184.393 1.5366 141.841C1.12291 141.664 0.709222 141.486 0.295532 141.309" stroke="#231F20" stroke-miterlimit="10"/>
<path d="M304.062 815.704C300.812 814.7 297.62 813.518 294.547 812.218C211.809 776.875 211.928 634.621 215.355 484.092C218.665 337.759 97.2763 202.36 0.23645 150.943" stroke="#231F20" stroke-miterlimit="10"/>
<path d="M283.851 815.704C280.6 814.7 277.409 813.518 274.395 812.218C191.657 776.876 191.775 634.621 195.203 484.092C198.276 347.747 93.1394 220.918 0.295532 162.644" stroke="#231F20" stroke-miterlimit="10"/>
<path d="M263.639 815.704C260.388 814.7 257.197 813.518 254.183 812.218C171.445 776.875 171.563 634.621 174.991 484.092C177.887 357.558 87.525 239.239 0.295532 176.297" stroke="#231F20" stroke-miterlimit="10"/>
<path d="M243.486 815.704C240.236 814.7 237.044 813.518 234.03 812.218C151.292 776.876 151.411 634.621 154.838 484.092C157.498 367.368 80.7287 257.56 0.354614 191.84" stroke="#231F20" stroke-miterlimit="10"/>
<path d="M223.274 815.705C220.024 814.7 216.833 813.518 213.819 812.218C131.081 776.876 131.199 634.621 134.627 484.092C137.05 377.179 72.8686 276.117 0.295532 209.334" stroke="#231F20" stroke-miterlimit="10"/>
<path d="M203.063 815.704C199.812 814.7 196.621 813.518 193.607 812.218C110.869 776.876 110.987 634.621 114.415 484.092C116.602 387.226 64.1811 295.148 0.295532 229.073" stroke="#231F20" stroke-miterlimit="10"/>
<path d="M182.851 815.705C179.601 814.7 176.409 813.518 173.336 812.218C90.6573 776.876 90.7164 634.621 94.1441 484.092C96.0944 397.687 54.548 315.065 0.23645 251.295" stroke="#231F20" stroke-miterlimit="10"/>
<path d="M162.698 815.705C159.448 814.7 156.257 813.518 153.243 812.218C70.5046 776.876 70.6228 634.621 74.0506 484.092C75.7644 408.739 44.3831 336.282 0.295532 276.708" stroke="#231F20" stroke-miterlimit="10"/>
<path d="M142.487 815.705C139.236 814.7 136.045 813.518 132.972 812.218C50.2339 776.876 50.3521 634.621 53.7798 484.092C55.1981 420.854 33.3908 359.685 0.23645 306.436" stroke="#231F20" stroke-miterlimit="10"/>
<path d="M122.275 815.705C119.025 814.7 115.833 813.518 112.819 812.218C30.0812 776.876 30.1994 634.621 33.6271 484.092C34.75 434.861 21.7483 386.872 0.295532 342.842" stroke="#231F20" stroke-miterlimit="10"/>
<path d="M102.063 815.705C98.7538 814.7 95.6216 813.518 92.5484 812.218C9.81043 776.876 9.92862 634.621 13.3563 484.092C14.0655 453.241 9.21943 422.864 0.23645 393.668" stroke="#231F20" stroke-miterlimit="10"/>
<path d="M0.295532 689.998C10.1059 749.453 30.7313 794.428 72.3958 812.277C75.4689 813.577 78.6011 814.759 81.8516 815.764" stroke="#231F20" stroke-miterlimit="10"/>
</g>
<defs>
<clipPath id="clip0_108_30">
<rect width="910" height="816" fill="white"/>
</clipPath>
</defs>
</svg>
